<svg xmlns="http://www.w3.org/2000/svg" xmlns:xlink="http://www.w3.org/1999/xlink" width="3178" zoomAndPan="magnify" viewBox="0 0 2383.92 1683.749949" height="2245" preserveAspectRatio="xMidYMid meet" version="1.0"><defs><g/><clipPath id="8d4c98d0ec"><path d="M 0.136719 0 L 2383.703125 0 L 2383.703125 1683.324219 L 0.136719 1683.324219 Z M 0.136719 0 " clip-rule="nonzero"/></clipPath><clipPath id="49b404a218"><path d="M 712.984375 785.808594 L 1216 785.808594 L 1216 1006 L 712.984375 1006 Z M 712.984375 785.808594 " clip-rule="nonzero"/></clipPath><clipPath id="235831adde"><path d="M 1990.152344 559.789062 L 2383.46875 559.789062 L 2383.46875 741 L 1990.152344 741 Z M 1990.152344 559.789062 " clip-rule="nonzero"/></clipPath><clipPath id="122df3cd29"><path d="M 1362.757812 782.804688 L 1765 782.804688 L 1765 1004.195312 L 1362.757812 1004.195312 Z M 1362.757812 782.804688 " clip-rule="nonzero"/></clipPath><clipPath id="b4c2845d0c"><path d="M 15.121094 468.210938 L 424.15625 468.210938 L 424.15625 649 L 15.121094 649 Z M 15.121094 468.210938 " clip-rule="nonzero"/></clipPath><clipPath id="76bd79395a"><path d="M 15.121094 809.460938 L 424.15625 809.460938 L 424.15625 990 L 15.121094 990 Z M 15.121094 809.460938 " clip-rule="nonzero"/></clipPath><clipPath id="fbcfed5d68"><path d="M 15.121094 1150.863281 L 424.15625 1150.863281 L 424.15625 1332 L 15.121094 1332 Z M 15.121094 1150.863281 " clip-rule="nonzero"/></clipPath><clipPath id="db36ec8f3b"><path d="M 1990.152344 804.769531 L 2383.46875 804.769531 L 2383.46875 986 L 1990.152344 986 Z M 1990.152344 804.769531 " clip-rule="nonzero"/></clipPath><clipPath id="f6f1ee133f"><path d="M 1990.152344 1067.101562 L 2383.46875 1067.101562 L 2383.46875 1248 L 1990.152344 1248 Z M 1990.152344 1067.101562 " clip-rule="nonzero"/></clipPath></defs><g clip-path="url(#8d4c98d0ec)"><path fill="#ffffff" d="M 0.136719 0 L 2383.78125 0 L 2383.78125 1683.324219 L 0.136719 1683.324219 Z M 0.136719 0 " fill-opacity="1" fill-rule="nonzero"/><path fill="#ffffff" d="M 0.136719 0 L 2383.78125 0 L 2383.78125 1683.324219 L 0.136719 1683.324219 Z M 0.136719 0 " fill-opacity="1" fill-rule="nonzero"/></g><g clip-path="url(#49b404a218)"><path fill="#afd4cb" d="M 712.984375 785.808594 L 1215.710938 785.808594 L 1215.710938 1005.75 L 712.984375 1005.75 Z M 712.984375 785.808594 " fill-opacity="1" fill-rule="nonzero"/></g><g fill="#000000" fill-opacity="1"><g transform="translate(755.151583, 919.743617)"><g><path d="M 48.25 0 L 37.796875 0 L 34 -11.59375 L 14.75 -11.59375 L 10.96875 0 L 0.75 0 L 18.125 -50.265625 L 30.875 -50.265625 Z M 23.890625 -39.78125 L 17.4375 -19.9375 L 31.25 -19.9375 L 24.75 -39.78125 Z M 23.890625 -39.78125 "/></g></g></g><g fill="#000000" fill-opacity="1"><g transform="translate(804.139346, 919.743617)"><g><path d="M 15.75 0.71875 C 12.332031 0.71875 9.722656 -0.203125 7.921875 -2.046875 C 6.128906 -3.890625 5.234375 -6.691406 5.234375 -10.453125 L 5.234375 -53.15625 L 14.75 -53.15625 L 14.75 -10.828125 C 14.75 -8.515625 15.710938 -7.359375 17.640625 -7.359375 C 18.191406 -7.359375 18.773438 -7.453125 19.390625 -7.640625 L 19.875 -7.5 L 20.734375 -0.171875 C 20.203125 0.0976562 19.5 0.3125 18.625 0.46875 C 17.757812 0.632812 16.800781 0.71875 15.75 0.71875 Z M 15.75 0.71875 "/></g></g></g><g fill="#000000" fill-opacity="1"><g transform="translate(825.934601, 919.743617)"><g><path d="M 15.75 0.71875 C 12.332031 0.71875 9.722656 -0.203125 7.921875 -2.046875 C 6.128906 -3.890625 5.234375 -6.691406 5.234375 -10.453125 L 5.234375 -53.15625 L 14.75 -53.15625 L 14.75 -10.828125 C 14.75 -8.515625 15.710938 -7.359375 17.640625 -7.359375 C 18.191406 -7.359375 18.773438 -7.453125 19.390625 -7.640625 L 19.875 -7.5 L 20.734375 -0.171875 C 20.203125 0.0976562 19.5 0.3125 18.625 0.46875 C 17.757812 0.632812 16.800781 0.71875 15.75 0.71875 Z M 15.75 0.71875 "/></g></g></g><g fill="#000000" fill-opacity="1"><g transform="translate(847.729856, 919.743617)"><g/></g></g><g fill="#000000" fill-opacity="1"><g transform="translate(864.334133, 919.743617)"><g><path d="M 38.40625 -50.265625 L 38.40625 -41.953125 L 16.46875 -41.953125 L 16.46875 -28.640625 L 36.375 -28.640625 L 36.375 -20.421875 L 16.46875 -20.421875 L 16.46875 0 L 6.53125 0 L 6.53125 -50.265625 Z M 38.40625 -50.265625 "/></g></g></g><g fill="#000000" fill-opacity="1"><g transform="translate(904.968189, 919.743617)"><g><path d="M 37.484375 -16.8125 L 13.09375 -16.8125 C 13.375 -13.507812 14.316406 -11.109375 15.921875 -9.609375 C 17.523438 -8.109375 19.710938 -7.359375 22.484375 -7.359375 C 24.660156 -7.359375 26.425781 -7.765625 27.78125 -8.578125 C 29.132812 -9.390625 30.222656 -10.625 31.046875 -12.28125 L 31.765625 -12.28125 L 38.09375 -8.21875 C 36.863281 -5.5625 35 -3.40625 32.5 -1.75 C 30 -0.101562 26.660156 0.71875 22.484375 0.71875 C 18.566406 0.71875 15.179688 -0.0234375 12.328125 -1.515625 C 9.472656 -3.003906 7.269531 -5.21875 5.71875 -8.15625 C 4.175781 -11.101562 3.40625 -14.703125 3.40625 -18.953125 C 3.40625 -23.253906 4.21875 -26.882812 5.84375 -29.84375 C 7.46875 -32.800781 9.664062 -35.007812 12.4375 -36.46875 C 15.21875 -37.925781 18.335938 -38.65625 21.796875 -38.65625 C 27.160156 -38.65625 31.269531 -37.234375 34.125 -34.390625 C 36.976562 -31.546875 38.40625 -27.375 38.40625 -21.875 C 38.40625 -19.875 38.335938 -18.328125 38.203125 -17.234375 Z M 29.296875 -22.96875 C 29.203125 -25.851562 28.53125 -27.953125 27.28125 -29.265625 C 26.03125 -30.585938 24.203125 -31.25 21.796875 -31.25 C 16.984375 -31.25 14.15625 -28.488281 13.3125 -22.96875 Z M 29.296875 -22.96875 "/></g></g></g><g fill="#000000" fill-opacity="1"><g transform="translate(946.186665, 919.743617)"><g><path d="M 14.78125 0.71875 C 12.351562 0.71875 10.242188 0.273438 8.453125 -0.609375 C 6.671875 -1.503906 5.296875 -2.816406 4.328125 -4.546875 C 3.367188 -6.285156 2.890625 -8.367188 2.890625 -10.796875 C 2.890625 -13.046875 3.367188 -14.929688 4.328125 -16.453125 C 5.296875 -17.972656 6.785156 -19.21875 8.796875 -20.1875 C 10.816406 -21.164062 13.457031 -21.921875 16.71875 -22.453125 C 18.976562 -22.816406 20.695312 -23.21875 21.875 -23.65625 C 23.0625 -24.09375 23.859375 -24.585938 24.265625 -25.140625 C 24.679688 -25.691406 24.890625 -26.390625 24.890625 -27.234375 C 24.890625 -28.453125 24.460938 -29.378906 23.609375 -30.015625 C 22.765625 -30.660156 21.359375 -30.984375 19.390625 -30.984375 C 17.285156 -30.984375 15.28125 -30.507812 13.375 -29.5625 C 11.46875 -28.625 9.816406 -27.390625 8.421875 -25.859375 L 7.734375 -25.859375 L 3.75 -31.875 C 5.675781 -34.007812 8.023438 -35.671875 10.796875 -36.859375 C 13.566406 -38.054688 16.59375 -38.65625 19.875 -38.65625 C 24.894531 -38.65625 28.523438 -37.585938 30.765625 -35.453125 C 33.015625 -33.316406 34.140625 -30.289062 34.140625 -26.375 L 34.140625 -9.90625 C 34.140625 -8.207031 34.882812 -7.359375 36.375 -7.359375 C 36.945312 -7.359375 37.507812 -7.460938 38.0625 -7.671875 L 38.546875 -7.53125 L 39.234375 -0.890625 C 38.703125 -0.546875 37.96875 -0.265625 37.03125 -0.046875 C 36.09375 0.171875 35.0625 0.28125 33.9375 0.28125 C 31.664062 0.28125 29.894531 -0.15625 28.625 -1.03125 C 27.351562 -1.90625 26.441406 -3.269531 25.890625 -5.125 L 25.171875 -5.1875 C 23.316406 -1.25 19.851562 0.71875 14.78125 0.71875 Z M 17.8125 -6.390625 C 20.007812 -6.390625 21.765625 -7.128906 23.078125 -8.609375 C 24.398438 -10.085938 25.0625 -12.144531 25.0625 -14.78125 L 25.0625 -18.640625 L 24.40625 -18.78125 C 23.832031 -18.320312 23.082031 -17.9375 22.15625 -17.625 C 21.226562 -17.3125 19.894531 -17.007812 18.15625 -16.71875 C 16.09375 -16.375 14.609375 -15.78125 13.703125 -14.9375 C 12.796875 -14.101562 12.34375 -12.914062 12.34375 -11.375 C 12.34375 -9.75 12.820312 -8.507812 13.78125 -7.65625 C 14.75 -6.8125 16.09375 -6.390625 17.8125 -6.390625 Z M 17.8125 -6.390625 "/></g></g></g><g fill="#000000" fill-opacity="1"><g transform="translate(986.167557, 919.743617)"><g><path d="M 26.171875 -9.046875 L 28.640625 -2 C 27.609375 -1.144531 26.3125 -0.476562 24.75 0 C 23.195312 0.476562 21.4375 0.71875 19.46875 0.71875 C 15.363281 0.71875 12.242188 -0.394531 10.109375 -2.625 C 7.972656 -4.863281 6.90625 -8.113281 6.90625 -12.375 L 6.90625 -30.390625 L 1.140625 -30.390625 L 1.140625 -37.96875 L 6.90625 -37.96875 L 6.90625 -45.359375 L 16.4375 -46.90625 L 16.4375 -37.96875 L 27.203125 -37.96875 L 27.203125 -30.390625 L 16.4375 -30.390625 L 16.4375 -13.0625 C 16.4375 -11.1875 16.828125 -9.816406 17.609375 -8.953125 C 18.390625 -8.097656 19.523438 -7.671875 21.015625 -7.671875 C 22.703125 -7.671875 24.179688 -8.128906 25.453125 -9.046875 Z M 26.171875 -9.046875 "/></g></g></g><g fill="#000000" fill-opacity="1"><g transform="translate(1015.62896, 919.743617)"><g><path d="M 17.359375 0.71875 C 13.097656 0.71875 9.953125 -0.441406 7.921875 -2.765625 C 5.890625 -5.097656 4.875 -8.441406 4.875 -12.796875 L 4.875 -37.921875 L 14.40625 -37.921875 L 14.40625 -14 C 14.40625 -11.675781 14.90625 -9.984375 15.90625 -8.921875 C 16.90625 -7.859375 18.445312 -7.328125 20.53125 -7.328125 C 23.164062 -7.328125 25.21875 -8.191406 26.6875 -9.921875 C 28.15625 -11.648438 28.890625 -14.375 28.890625 -18.09375 L 28.890625 -37.921875 L 38.40625 -37.921875 L 38.40625 0 L 29.265625 0 L 29.265625 -5.578125 L 28.546875 -5.75 C 27.328125 -3.5625 25.835938 -1.9375 24.078125 -0.875 C 22.328125 0.1875 20.085938 0.71875 17.359375 0.71875 Z M 17.359375 0.71875 "/></g></g></g><g fill="#000000" fill-opacity="1"><g transform="translate(1059.494488, 919.743617)"><g><path d="M 5.46875 0 L 5.46875 -37.921875 L 14.71875 -37.921875 L 14.71875 -32.28125 L 15.4375 -32.15625 C 16.351562 -34.257812 17.554688 -35.800781 19.046875 -36.78125 C 20.535156 -37.769531 22.347656 -38.265625 24.484375 -38.265625 C 26.640625 -38.265625 28.28125 -37.898438 29.40625 -37.171875 L 27.78125 -28.953125 L 27.0625 -28.8125 C 26.445312 -29.0625 25.847656 -29.242188 25.265625 -29.359375 C 24.691406 -29.472656 23.992188 -29.53125 23.171875 -29.53125 C 20.515625 -29.53125 18.484375 -28.597656 17.078125 -26.734375 C 15.679688 -24.867188 14.984375 -21.875 14.984375 -17.75 L 14.984375 0 Z M 5.46875 0 "/></g></g></g><g fill="#000000" fill-opacity="1"><g transform="translate(1089.23091, 919.743617)"><g><path d="M 37.484375 -16.8125 L 13.09375 -16.8125 C 13.375 -13.507812 14.316406 -11.109375 15.921875 -9.609375 C 17.523438 -8.109375 19.710938 -7.359375 22.484375 -7.359375 C 24.660156 -7.359375 26.425781 -7.765625 27.78125 -8.578125 C 29.132812 -9.390625 30.222656 -10.625 31.046875 -12.28125 L 31.765625 -12.28125 L 38.09375 -8.21875 C 36.863281 -5.5625 35 -3.40625 32.5 -1.75 C 30 -0.101562 26.660156 0.71875 22.484375 0.71875 C 18.566406 0.71875 15.179688 -0.0234375 12.328125 -1.515625 C 9.472656 -3.003906 7.269531 -5.21875 5.71875 -8.15625 C 4.175781 -11.101562 3.40625 -14.703125 3.40625 -18.953125 C 3.40625 -23.253906 4.21875 -26.882812 5.84375 -29.84375 C 7.46875 -32.800781 9.664062 -35.007812 12.4375 -36.46875 C 15.21875 -37.925781 18.335938 -38.65625 21.796875 -38.65625 C 27.160156 -38.65625 31.269531 -37.234375 34.125 -34.390625 C 36.976562 -31.546875 38.40625 -27.375 38.40625 -21.875 C 38.40625 -19.875 38.335938 -18.328125 38.203125 -17.234375 Z M 29.296875 -22.96875 C 29.203125 -25.851562 28.53125 -27.953125 27.28125 -29.265625 C 26.03125 -30.585938 24.203125 -31.25 21.796875 -31.25 C 16.984375 -31.25 14.15625 -28.488281 13.3125 -22.96875 Z M 29.296875 -22.96875 "/></g></g></g><g fill="#000000" fill-opacity="1"><g transform="translate(1130.449387, 919.743617)"><g><path d="M 17.75 0.71875 C 15.15625 0.71875 12.78125 0.414062 10.625 -0.1875 C 8.46875 -0.789062 6.625 -1.625 5.09375 -2.6875 C 3.570312 -3.757812 2.445312 -4.984375 1.71875 -6.359375 L 7.015625 -12.0625 L 7.734375 -12.0625 C 8.992188 -10.375 10.484375 -9.101562 12.203125 -8.25 C 13.921875 -7.40625 15.789062 -6.984375 17.8125 -6.984375 C 19.664062 -6.984375 21.0625 -7.3125 22 -7.96875 C 22.945312 -8.632812 23.421875 -9.585938 23.421875 -10.828125 C 23.421875 -11.796875 23.082031 -12.601562 22.40625 -13.25 C 21.726562 -13.90625 20.632812 -14.414062 19.125 -14.78125 L 14.09375 -15.984375 C 10.332031 -16.878906 7.585938 -18.25 5.859375 -20.09375 C 4.128906 -21.9375 3.265625 -24.28125 3.265625 -27.125 C 3.265625 -29.488281 3.863281 -31.539062 5.0625 -33.28125 C 6.269531 -35.03125 7.96875 -36.363281 10.15625 -37.28125 C 12.34375 -38.195312 14.894531 -38.65625 17.8125 -38.65625 C 21.226562 -38.65625 24.054688 -38.160156 26.296875 -37.171875 C 28.546875 -36.179688 30.300781 -34.863281 31.5625 -33.21875 L 26.484375 -27.71875 L 25.796875 -27.71875 C 24.734375 -28.90625 23.539062 -29.773438 22.21875 -30.328125 C 20.90625 -30.878906 19.4375 -31.15625 17.8125 -31.15625 C 14.050781 -31.15625 12.171875 -29.984375 12.171875 -27.640625 C 12.171875 -26.660156 12.519531 -25.859375 13.21875 -25.234375 C 13.914062 -24.617188 15.148438 -24.113281 16.921875 -23.71875 L 21.59375 -22.6875 C 25.445312 -21.863281 28.257812 -20.539062 30.03125 -18.71875 C 31.8125 -16.894531 32.703125 -14.445312 32.703125 -11.375 C 32.703125 -8.96875 32.101562 -6.847656 30.90625 -5.015625 C 29.71875 -3.179688 28 -1.765625 25.75 -0.765625 C 23.507812 0.222656 20.84375 0.71875 17.75 0.71875 Z M 17.75 0.71875 "/></g></g></g><g clip-path="url(#235831adde)"><path fill="#afd4cb" d="M 1990.152344 559.789062 L 2385.105469 559.789062 L 2385.105469 740.09375 L 1990.152344 740.09375 Z M 1990.152344 559.789062 " fill-opacity="1" fill-rule="nonzero"/></g><g fill="#000000" fill-opacity="1"><g transform="translate(2121.729512, 670.116389)"><g><path d="M 33.96875 -44.453125 L 33.96875 -37.09375 L 14.5625 -37.09375 L 14.5625 -25.328125 L 32.171875 -25.328125 L 32.171875 -18.0625 L 14.5625 -18.0625 L 14.5625 0 L 5.78125 0 L 5.78125 -44.453125 Z M 33.96875 -44.453125 "/></g></g></g><g fill="#000000" fill-opacity="1"><g transform="translate(2157.670986, 670.116389)"><g><path d="M 26.421875 0 L 15.8125 0 L 0.796875 -44.453125 L 10.125 -44.453125 L 20.921875 -11.3125 L 21.6875 -11.3125 L 32.328125 -44.453125 L 41.421875 -44.453125 Z M 26.421875 0 "/></g></g></g><g fill="#000000" fill-opacity="1"><g transform="translate(2199.876373, 670.116389)"><g><path d="M 24.296875 0.640625 C 20.203125 0.640625 16.59375 -0.207031 13.46875 -1.90625 C 10.34375 -3.613281 7.898438 -6.175781 6.140625 -9.59375 C 4.378906 -13.007812 3.5 -17.222656 3.5 -22.234375 C 3.5 -27.234375 4.378906 -31.441406 6.140625 -34.859375 C 7.898438 -38.273438 10.34375 -40.832031 13.46875 -42.53125 C 16.59375 -44.238281 20.203125 -45.09375 24.296875 -45.09375 C 28.578125 -45.09375 32.210938 -44.253906 35.203125 -42.578125 C 38.191406 -40.910156 40.328125 -38.363281 41.609375 -34.9375 L 35.1875 -31.015625 L 34.421875 -31.046875 C 33.472656 -33.359375 32.179688 -35.015625 30.546875 -36.015625 C 28.910156 -37.023438 26.828125 -37.53125 24.296875 -37.53125 C 20.609375 -37.53125 17.726562 -36.304688 15.65625 -33.859375 C 13.59375 -31.421875 12.5625 -27.546875 12.5625 -22.234375 C 12.5625 -16.941406 13.59375 -13.070312 15.65625 -10.625 C 17.726562 -8.1875 20.609375 -6.96875 24.296875 -6.96875 C 30.078125 -6.96875 33.613281 -9.773438 34.90625 -15.390625 L 35.671875 -15.390625 L 42.15625 -12.015625 C 40.9375 -7.796875 38.851562 -4.628906 35.90625 -2.515625 C 32.96875 -0.410156 29.097656 0.640625 24.296875 0.640625 Z M 24.296875 0.640625 "/></g></g></g><g clip-path="url(#122df3cd29)"><path fill="#afd4cb" d="M 1362.757812 782.804688 L 1764.390625 782.804688 L 1764.390625 1004.988281 L 1362.757812 1004.988281 Z M 1362.757812 782.804688 " fill-opacity="1" fill-rule="nonzero"/></g><g fill="#000000" fill-opacity="1"><g transform="translate(1438.928978, 868.578766)"><g><path d="M 15.390625 0 L 6.421875 0 L 6.421875 -49.4375 L 19.203125 -49.4375 L 31.71875 -13.078125 L 32.421875 -13.078125 L 44.875 -49.4375 L 57.34375 -49.4375 L 57.34375 0 L 48.078125 0 L 48.078125 -32.65625 L 47.234375 -32.796875 L 35.8125 0 L 27.65625 0 L 16.234375 -32.796875 L 15.390625 -32.65625 Z M 15.390625 0 "/></g></g></g><g fill="#000000" fill-opacity="1"><g transform="translate(1502.731875, 868.578766)"><g><path d="M 26.953125 0.703125 C 22.421875 0.703125 18.421875 -0.21875 14.953125 -2.0625 C 11.492188 -3.90625 8.785156 -6.726562 6.828125 -10.53125 C 4.867188 -14.332031 3.890625 -19.0625 3.890625 -24.71875 C 3.890625 -30.375 4.867188 -35.097656 6.828125 -38.890625 C 8.785156 -42.691406 11.492188 -45.515625 14.953125 -47.359375 C 18.421875 -49.210938 22.421875 -50.140625 26.953125 -50.140625 C 31.484375 -50.140625 35.472656 -49.222656 38.921875 -47.390625 C 42.367188 -45.554688 45.066406 -42.734375 47.015625 -38.921875 C 48.960938 -35.109375 49.9375 -30.375 49.9375 -24.71875 C 49.9375 -19.0625 48.960938 -14.328125 47.015625 -10.515625 C 45.066406 -6.703125 42.367188 -3.878906 38.921875 -2.046875 C 35.472656 -0.210938 31.484375 0.703125 26.953125 0.703125 Z M 26.953125 -7.78125 C 31.140625 -7.78125 34.335938 -9.125 36.546875 -11.8125 C 38.753906 -14.507812 39.859375 -18.8125 39.859375 -24.71875 C 39.859375 -30.625 38.753906 -34.925781 36.546875 -37.625 C 34.335938 -40.332031 31.140625 -41.6875 26.953125 -41.6875 C 22.734375 -41.6875 19.515625 -40.332031 17.296875 -37.625 C 15.078125 -34.925781 13.96875 -30.625 13.96875 -24.71875 C 13.96875 -18.8125 15.078125 -14.507812 17.296875 -11.8125 C 19.515625 -9.125 22.734375 -7.78125 26.953125 -7.78125 Z M 26.953125 -7.78125 "/></g></g></g><g fill="#000000" fill-opacity="1"><g transform="translate(1556.594099, 868.578766)"><g><path d="M 24.203125 -49.4375 C 32.234375 -49.4375 38.359375 -47.359375 42.578125 -43.203125 C 46.804688 -39.054688 48.921875 -32.894531 48.921875 -24.71875 C 48.921875 -16.5625 46.804688 -10.398438 42.578125 -6.234375 C 38.359375 -2.078125 32.234375 0 24.203125 0 L 6.421875 0 L 6.421875 -49.4375 Z M 23.640625 -8.21875 C 28.734375 -8.21875 32.539062 -9.519531 35.0625 -12.125 C 37.59375 -14.726562 38.859375 -18.925781 38.859375 -24.71875 C 38.859375 -30.507812 37.59375 -34.707031 35.0625 -37.3125 C 32.539062 -39.914062 28.734375 -41.21875 23.640625 -41.21875 L 16.203125 -41.21875 L 16.203125 -8.21875 Z M 23.640625 -8.21875 "/></g></g></g><g fill="#000000" fill-opacity="1"><g transform="translate(1609.441968, 868.578766)"><g><path d="M 16.203125 -21.703125 L 16.203125 -8.1875 L 39.796875 -8.1875 L 39.796875 0 L 6.421875 0 L 6.421875 -49.4375 L 39.25 -49.4375 L 39.25 -41.25 L 16.203125 -41.25 L 16.203125 -29.6875 L 36.34375 -29.6875 L 36.34375 -21.703125 Z M 16.203125 -21.703125 "/></g></g></g><g fill="#000000" fill-opacity="1"><g transform="translate(1651.943421, 868.578766)"><g><path d="M 16.203125 -49.4375 L 16.203125 -8.1875 L 38.40625 -8.1875 L 38.40625 0 L 6.421875 0 L 6.421875 -49.4375 Z M 16.203125 -49.4375 "/></g></g></g><g fill="#000000" fill-opacity="1"><g transform="translate(1471.908294, 965.025829)"><g><path d="M 15.109375 7.0625 C 12.046875 3.28125 9.578125 -0.941406 7.703125 -5.609375 C 5.835938 -10.273438 4.90625 -15.9375 4.90625 -22.59375 C 4.90625 -29.257812 5.835938 -34.925781 7.703125 -39.59375 C 9.578125 -44.257812 12.046875 -48.488281 15.109375 -52.28125 L 22.3125 -52.28125 L 22.453125 -51.5625 C 20.015625 -47.394531 18.128906 -43.066406 16.796875 -38.578125 C 15.472656 -34.097656 14.8125 -28.769531 14.8125 -22.59375 C 14.8125 -16.4375 15.472656 -11.113281 16.796875 -6.625 C 18.128906 -2.144531 20.015625 2.179688 22.453125 6.359375 L 22.3125 7.0625 Z M 15.109375 7.0625 "/></g></g></g><g fill="#000000" fill-opacity="1"><g transform="translate(1496.489484, 965.025829)"><g><path d="M 39.6875 -26.171875 C 39.6875 -20.546875 39.070312 -15.734375 37.84375 -11.734375 C 36.625 -7.742188 34.675781 -4.675781 32 -2.53125 C 29.320312 -0.382812 25.765625 0.6875 21.328125 0.6875 C 15.140625 0.6875 10.554688 -1.6875 7.578125 -6.4375 C 4.597656 -11.195312 3.109375 -17.773438 3.109375 -26.171875 C 3.109375 -31.804688 3.707031 -36.617188 4.90625 -40.609375 C 6.113281 -44.609375 8.054688 -47.664062 10.734375 -49.78125 C 13.410156 -51.90625 16.941406 -52.96875 21.328125 -52.96875 C 27.515625 -52.96875 32.117188 -50.625 35.140625 -45.9375 C 38.171875 -41.257812 39.6875 -34.671875 39.6875 -26.171875 Z M 21.390625 -45.5 C 18.804688 -45.5 16.925781 -44.21875 15.75 -41.65625 C 14.570312 -39.09375 13.894531 -35.269531 13.71875 -30.1875 L 29.078125 -30.1875 C 28.898438 -35.269531 28.207031 -39.09375 27 -41.65625 C 25.800781 -44.21875 23.929688 -45.5 21.390625 -45.5 Z M 21.328125 -6.78125 C 23.960938 -6.78125 25.890625 -8.082031 27.109375 -10.6875 C 28.335938 -13.300781 28.992188 -17.238281 29.078125 -22.5 L 13.640625 -22.5 C 13.691406 -17.289062 14.316406 -13.367188 15.515625 -10.734375 C 16.710938 -8.097656 18.648438 -6.78125 21.328125 -6.78125 Z M 21.328125 -6.78125 "/></g></g></g><g fill="#000000" fill-opacity="1"><g transform="translate(1539.28386, 965.025829)"><g><path d="M 1.359375 9.9375 C 3.335938 8.71875 5.109375 7.242188 6.671875 5.515625 C 8.242188 3.796875 9.085938 2.046875 9.203125 0.265625 C 7.441406 0.265625 6.054688 -0.253906 5.046875 -1.296875 C 4.046875 -2.347656 3.546875 -3.707031 3.546875 -5.375 C 3.546875 -6.4375 3.785156 -7.398438 4.265625 -8.265625 C 4.753906 -9.128906 5.445312 -9.8125 6.34375 -10.3125 C 7.25 -10.8125 8.289062 -11.0625 9.46875 -11.0625 C 11.363281 -11.0625 12.875 -10.441406 14 -9.203125 C 15.125 -7.960938 15.6875 -6.179688 15.6875 -3.859375 C 15.6875 0.179688 14.664062 3.6875 12.625 6.65625 C 10.582031 9.632812 7.863281 12.148438 4.46875 14.203125 Z M 1.359375 9.9375 "/></g></g></g><g fill="#000000" fill-opacity="1"><g transform="translate(1558.522783, 965.025829)"><g/></g></g><g fill="#000000" fill-opacity="1"><g transform="translate(1574.85389, 965.025829)"><g><path d="M 34.484375 -50.140625 L 34.484375 -44.046875 C 39.835938 -43.898438 44.128906 -42.960938 47.359375 -41.234375 C 50.597656 -39.503906 52.921875 -37.273438 54.328125 -34.546875 C 55.734375 -31.828125 56.4375 -28.851562 56.4375 -25.625 C 56.4375 -23.539062 56.078125 -21.414062 55.359375 -19.25 C 54.648438 -17.082031 53.453125 -15.085938 51.765625 -13.265625 C 50.078125 -11.441406 47.820312 -9.953125 45 -8.796875 C 42.1875 -7.640625 38.679688 -7.015625 34.484375 -6.921875 L 34.484375 0.6875 L 25.0625 0.6875 L 25.0625 -6.921875 C 20.820312 -7.015625 17.28125 -7.640625 14.4375 -8.796875 C 11.601562 -9.953125 9.351562 -11.453125 7.6875 -13.296875 C 6.019531 -15.140625 4.835938 -17.132812 4.140625 -19.28125 C 3.453125 -21.425781 3.109375 -23.539062 3.109375 -25.625 C 3.109375 -28.851562 3.8125 -31.828125 5.21875 -34.546875 C 6.632812 -37.273438 8.945312 -39.503906 12.15625 -41.234375 C 15.363281 -42.960938 19.664062 -43.898438 25.0625 -44.046875 L 25.0625 -50.140625 Z M 25.0625 -35.875 C 20.539062 -35.6875 17.390625 -34.644531 15.609375 -32.75 C 13.835938 -30.863281 12.953125 -28.507812 12.953125 -25.6875 C 12.953125 -22.59375 13.910156 -20.085938 15.828125 -18.171875 C 17.742188 -16.253906 20.820312 -15.207031 25.0625 -15.03125 Z M 34.484375 -35.875 L 34.484375 -15.03125 C 38.734375 -15.207031 41.816406 -16.253906 43.734375 -18.171875 C 45.648438 -20.085938 46.609375 -22.59375 46.609375 -25.6875 C 46.609375 -28.507812 45.71875 -30.863281 43.9375 -32.75 C 42.15625 -34.644531 39.003906 -35.6875 34.484375 -35.875 Z M 34.484375 -35.875 "/></g></g></g><g fill="#000000" fill-opacity="1"><g transform="translate(1634.40594, 965.025829)"><g><path d="M 2.125 6.359375 C 3.6875 3.648438 5.019531 0.929688 6.125 -1.796875 C 7.226562 -4.523438 8.109375 -7.613281 8.765625 -11.0625 C 9.429688 -14.507812 9.765625 -18.351562 9.765625 -22.59375 C 9.765625 -26.820312 9.429688 -30.664062 8.765625 -34.125 C 8.109375 -37.59375 7.234375 -40.691406 6.140625 -43.421875 C 5.046875 -46.148438 3.707031 -48.863281 2.125 -51.5625 L 2.265625 -52.28125 L 9.4375 -52.28125 C 11.375 -49.863281 13.085938 -47.304688 14.578125 -44.609375 C 16.066406 -41.921875 17.285156 -38.734375 18.234375 -35.046875 C 19.191406 -31.359375 19.671875 -27.207031 19.671875 -22.59375 C 19.671875 -15.9375 18.726562 -10.273438 16.84375 -5.609375 C 14.96875 -0.941406 12.5 3.28125 9.4375 7.0625 L 2.265625 7.0625 Z M 2.125 6.359375 "/></g></g></g><g clip-path="url(#b4c2845d0c)"><path fill="#afd4cb" d="M 15.121094 468.210938 L 427.25 468.210938 L 427.25 648.515625 L 15.121094 648.515625 Z M 15.121094 468.210938 " fill-opacity="1" fill-rule="nonzero"/></g><g fill="#000000" fill-opacity="1"><g transform="translate(158.18737, 534.296343)"><g><path d="M 32.1875 -42.125 L 32.1875 -35.15625 L 13.796875 -35.15625 L 13.796875 -24 L 30.484375 -24 L 30.484375 -17.109375 L 13.796875 -17.109375 L 13.796875 0 L 5.46875 0 L 5.46875 -42.125 Z M 32.1875 -42.125 "/></g></g></g><g fill="#000000" fill-opacity="1"><g transform="translate(192.24532, 534.296343)"><g><path d="M 25.046875 0 L 14.984375 0 L 0.75 -42.125 L 9.59375 -42.125 L 19.828125 -10.71875 L 20.546875 -10.71875 L 30.625 -42.125 L 39.25 -42.125 Z M 25.046875 0 "/></g></g></g><g fill="#000000" fill-opacity="1"><g transform="translate(232.23892, 534.296343)"><g><path d="M 23.03125 0.609375 C 19.144531 0.609375 15.722656 -0.195312 12.765625 -1.8125 C 9.804688 -3.425781 7.488281 -5.851562 5.8125 -9.09375 C 4.144531 -12.332031 3.3125 -16.320312 3.3125 -21.0625 C 3.3125 -25.8125 4.144531 -29.800781 5.8125 -33.03125 C 7.488281 -36.269531 9.804688 -38.695312 12.765625 -40.3125 C 15.722656 -41.925781 19.144531 -42.734375 23.03125 -42.734375 C 27.082031 -42.734375 30.523438 -41.941406 33.359375 -40.359375 C 36.191406 -38.773438 38.210938 -36.359375 39.421875 -33.109375 L 33.34375 -29.390625 L 32.625 -29.421875 C 31.71875 -31.609375 30.488281 -33.175781 28.9375 -34.125 C 27.394531 -35.082031 25.425781 -35.5625 23.03125 -35.5625 C 19.53125 -35.5625 16.800781 -34.398438 14.84375 -32.078125 C 12.882812 -29.765625 11.90625 -26.09375 11.90625 -21.0625 C 11.90625 -16.050781 12.882812 -12.382812 14.84375 -10.0625 C 16.800781 -7.75 19.53125 -6.59375 23.03125 -6.59375 C 28.5 -6.59375 31.847656 -9.253906 33.078125 -14.578125 L 33.796875 -14.578125 L 39.9375 -11.375 C 38.78125 -7.382812 36.8125 -4.390625 34.03125 -2.390625 C 31.25 -0.390625 27.582031 0.609375 23.03125 0.609375 Z M 23.03125 0.609375 "/></g></g></g><g fill="#000000" fill-opacity="1"><g transform="translate(89.70484, 616.699745)"><g><path d="M 32.1875 -42.125 L 32.1875 -35.15625 L 13.796875 -35.15625 L 13.796875 -24 L 30.484375 -24 L 30.484375 -17.109375 L 13.796875 -17.109375 L 13.796875 0 L 5.46875 0 L 5.46875 -42.125 Z M 32.1875 -42.125 "/></g></g></g><g fill="#000000" fill-opacity="1"><g transform="translate(123.762789, 616.699745)"><g><path d="M 31.40625 -14.09375 L 10.984375 -14.09375 C 11.210938 -11.320312 12 -9.304688 13.34375 -8.046875 C 14.6875 -6.796875 16.519531 -6.171875 18.84375 -6.171875 C 20.664062 -6.171875 22.144531 -6.507812 23.28125 -7.1875 C 24.414062 -7.875 25.328125 -8.90625 26.015625 -10.28125 L 26.625 -10.28125 L 31.921875 -6.890625 C 30.890625 -4.660156 29.328125 -2.851562 27.234375 -1.46875 C 25.140625 -0.0820312 22.34375 0.609375 18.84375 0.609375 C 15.5625 0.609375 12.722656 -0.015625 10.328125 -1.265625 C 7.941406 -2.515625 6.097656 -4.375 4.796875 -6.84375 C 3.503906 -9.3125 2.859375 -12.320312 2.859375 -15.875 C 2.859375 -19.488281 3.535156 -22.535156 4.890625 -25.015625 C 6.253906 -27.492188 8.097656 -29.34375 10.421875 -30.5625 C 12.753906 -31.78125 15.367188 -32.390625 18.265625 -32.390625 C 22.765625 -32.390625 26.207031 -31.195312 28.59375 -28.8125 C 30.988281 -26.4375 32.1875 -22.941406 32.1875 -18.328125 C 32.1875 -16.648438 32.128906 -15.351562 32.015625 -14.4375 Z M 24.546875 -19.25 C 24.472656 -21.664062 23.910156 -23.425781 22.859375 -24.53125 C 21.816406 -25.632812 20.285156 -26.1875 18.265625 -26.1875 C 14.234375 -26.1875 11.863281 -23.875 11.15625 -19.25 Z M 24.546875 -19.25 "/></g></g></g><g fill="#000000" fill-opacity="1"><g transform="translate(158.310581, 616.699745)"><g><path d="M 12.390625 0.609375 C 10.359375 0.609375 8.59375 0.234375 7.09375 -0.515625 C 5.59375 -1.265625 4.4375 -2.363281 3.625 -3.8125 C 2.820312 -5.269531 2.421875 -7.015625 2.421875 -9.046875 C 2.421875 -10.929688 2.820312 -12.507812 3.625 -13.78125 C 4.4375 -15.0625 5.6875 -16.109375 7.375 -16.921875 C 9.0625 -17.742188 11.269531 -18.375 14 -18.8125 C 15.90625 -19.125 17.351562 -19.460938 18.34375 -19.828125 C 19.332031 -20.191406 20 -20.601562 20.34375 -21.0625 C 20.6875 -21.519531 20.859375 -22.109375 20.859375 -22.828125 C 20.859375 -23.835938 20.503906 -24.613281 19.796875 -25.15625 C 19.085938 -25.695312 17.90625 -25.96875 16.25 -25.96875 C 14.476562 -25.96875 12.796875 -25.570312 11.203125 -24.78125 C 9.609375 -23.988281 8.226562 -22.953125 7.0625 -21.671875 L 6.484375 -21.671875 L 3.140625 -26.71875 C 4.753906 -28.5 6.722656 -29.890625 9.046875 -30.890625 C 11.367188 -31.890625 13.90625 -32.390625 16.65625 -32.390625 C 20.863281 -32.390625 23.90625 -31.492188 25.78125 -29.703125 C 27.664062 -27.921875 28.609375 -25.390625 28.609375 -22.109375 L 28.609375 -8.296875 C 28.609375 -6.878906 29.234375 -6.171875 30.484375 -6.171875 C 30.960938 -6.171875 31.4375 -6.253906 31.90625 -6.421875 L 32.296875 -6.3125 L 32.875 -0.75 C 32.4375 -0.457031 31.820312 -0.21875 31.03125 -0.03125 C 30.25 0.144531 29.382812 0.234375 28.4375 0.234375 C 26.539062 0.234375 25.054688 -0.128906 23.984375 -0.859375 C 22.921875 -1.585938 22.160156 -2.734375 21.703125 -4.296875 L 21.09375 -4.34375 C 19.539062 -1.039062 16.640625 0.609375 12.390625 0.609375 Z M 14.921875 -5.359375 C 16.765625 -5.359375 18.238281 -5.976562 19.34375 -7.21875 C 20.445312 -8.457031 21 -10.179688 21 -12.390625 L 21 -15.625 L 20.453125 -15.734375 C 19.972656 -15.347656 19.34375 -15.023438 18.5625 -14.765625 C 17.789062 -14.503906 16.675781 -14.25 15.21875 -14 C 13.488281 -13.71875 12.242188 -13.222656 11.484375 -12.515625 C 10.722656 -11.816406 10.34375 -10.820312 10.34375 -9.53125 C 10.34375 -8.175781 10.742188 -7.140625 11.546875 -6.421875 C 12.359375 -5.710938 13.484375 -5.359375 14.921875 -5.359375 Z M 14.921875 -5.359375 "/></g></g></g><g fill="#000000" fill-opacity="1"><g transform="translate(191.821074, 616.699745)"><g><path d="M 21.921875 -7.578125 L 24 -1.671875 C 23.132812 -0.960938 22.046875 -0.40625 20.734375 0 C 19.429688 0.40625 17.957031 0.609375 16.3125 0.609375 C 12.875 0.609375 10.257812 -0.328125 8.46875 -2.203125 C 6.6875 -4.078125 5.796875 -6.800781 5.796875 -10.375 L 5.796875 -25.46875 L 0.953125 -25.46875 L 0.953125 -31.8125 L 5.796875 -31.8125 L 5.796875 -38.015625 L 13.78125 -39.3125 L 13.78125 -31.8125 L 22.796875 -31.8125 L 22.796875 -25.46875 L 13.78125 -25.46875 L 13.78125 -10.953125 C 13.78125 -9.378906 14.101562 -8.226562 14.75 -7.5 C 15.40625 -6.78125 16.359375 -6.421875 17.609375 -6.421875 C 19.023438 -6.421875 20.265625 -6.804688 21.328125 -7.578125 Z M 21.921875 -7.578125 "/></g></g></g><g fill="#000000" fill-opacity="1"><g transform="translate(216.514534, 616.699745)"><g><path d="M 14.546875 0.609375 C 10.972656 0.609375 8.335938 -0.363281 6.640625 -2.3125 C 4.941406 -4.269531 4.09375 -7.070312 4.09375 -10.71875 L 4.09375 -31.78125 L 12.078125 -31.78125 L 12.078125 -11.734375 C 12.078125 -9.785156 12.492188 -8.363281 13.328125 -7.46875 C 14.160156 -6.582031 15.453125 -6.140625 17.203125 -6.140625 C 19.410156 -6.140625 21.128906 -6.863281 22.359375 -8.3125 C 23.585938 -9.757812 24.203125 -12.039062 24.203125 -15.15625 L 24.203125 -31.78125 L 32.1875 -31.78125 L 32.1875 0 L 24.515625 0 L 24.515625 -4.671875 L 23.921875 -4.8125 C 22.898438 -2.988281 21.65625 -1.628906 20.1875 -0.734375 C 18.71875 0.160156 16.835938 0.609375 14.546875 0.609375 Z M 14.546875 0.609375 "/></g></g></g><g fill="#000000" fill-opacity="1"><g transform="translate(253.280984, 616.699745)"><g><path d="M 4.578125 0 L 4.578125 -31.78125 L 12.328125 -31.78125 L 12.328125 -27.0625 L 12.9375 -26.9375 C 13.707031 -28.707031 14.71875 -30.003906 15.96875 -30.828125 C 17.21875 -31.660156 18.734375 -32.078125 20.515625 -32.078125 C 22.316406 -32.078125 23.691406 -31.769531 24.640625 -31.15625 L 23.28125 -24.265625 L 22.671875 -24.140625 C 22.160156 -24.359375 21.660156 -24.515625 21.171875 -24.609375 C 20.691406 -24.703125 20.109375 -24.75 19.421875 -24.75 C 17.191406 -24.75 15.488281 -23.96875 14.3125 -22.40625 C 13.144531 -20.84375 12.5625 -18.332031 12.5625 -14.875 L 12.5625 0 Z M 4.578125 0 "/></g></g></g><g fill="#000000" fill-opacity="1"><g transform="translate(278.204956, 616.699745)"><g><path d="M 31.40625 -14.09375 L 10.984375 -14.09375 C 11.210938 -11.320312 12 -9.304688 13.34375 -8.046875 C 14.6875 -6.796875 16.519531 -6.171875 18.84375 -6.171875 C 20.664062 -6.171875 22.144531 -6.507812 23.28125 -7.1875 C 24.414062 -7.875 25.328125 -8.90625 26.015625 -10.28125 L 26.625 -10.28125 L 31.921875 -6.890625 C 30.890625 -4.660156 29.328125 -2.851562 27.234375 -1.46875 C 25.140625 -0.0820312 22.34375 0.609375 18.84375 0.609375 C 15.5625 0.609375 12.722656 -0.015625 10.328125 -1.265625 C 7.941406 -2.515625 6.097656 -4.375 4.796875 -6.84375 C 3.503906 -9.3125 2.859375 -12.320312 2.859375 -15.875 C 2.859375 -19.488281 3.535156 -22.535156 4.890625 -25.015625 C 6.253906 -27.492188 8.097656 -29.34375 10.421875 -30.5625 C 12.753906 -31.78125 15.367188 -32.390625 18.265625 -32.390625 C 22.765625 -32.390625 26.207031 -31.195312 28.59375 -28.8125 C 30.988281 -26.4375 32.1875 -22.941406 32.1875 -18.328125 C 32.1875 -16.648438 32.128906 -15.351562 32.015625 -14.4375 Z M 24.546875 -19.25 C 24.472656 -21.664062 23.910156 -23.425781 22.859375 -24.53125 C 21.816406 -25.632812 20.285156 -26.1875 18.265625 -26.1875 C 14.234375 -26.1875 11.863281 -23.875 11.15625 -19.25 Z M 24.546875 -19.25 "/></g></g></g><g fill="#000000" fill-opacity="1"><g transform="translate(312.752759, 616.699745)"><g><path d="M 14.875 0.609375 C 12.695312 0.609375 10.707031 0.351562 8.90625 -0.15625 C 7.101562 -0.664062 5.5625 -1.367188 4.28125 -2.265625 C 3 -3.160156 2.050781 -4.179688 1.4375 -5.328125 L 5.875 -10.109375 L 6.484375 -10.109375 C 7.535156 -8.691406 8.78125 -7.625 10.21875 -6.90625 C 11.664062 -6.195312 13.234375 -5.84375 14.921875 -5.84375 C 16.484375 -5.84375 17.65625 -6.117188 18.4375 -6.671875 C 19.226562 -7.234375 19.625 -8.035156 19.625 -9.078125 C 19.625 -9.878906 19.335938 -10.554688 18.765625 -11.109375 C 18.203125 -11.660156 17.285156 -12.085938 16.015625 -12.390625 L 11.8125 -13.40625 C 8.664062 -14.144531 6.363281 -15.285156 4.90625 -16.828125 C 3.457031 -18.378906 2.734375 -20.347656 2.734375 -22.734375 C 2.734375 -24.710938 3.238281 -26.429688 4.25 -27.890625 C 5.257812 -29.347656 6.679688 -30.460938 8.515625 -31.234375 C 10.347656 -32.003906 12.484375 -32.390625 14.921875 -32.390625 C 17.785156 -32.390625 20.160156 -31.972656 22.046875 -31.140625 C 23.929688 -30.316406 25.398438 -29.21875 26.453125 -27.84375 L 22.1875 -23.21875 L 21.609375 -23.21875 C 20.722656 -24.21875 19.726562 -24.945312 18.625 -25.40625 C 17.519531 -25.875 16.285156 -26.109375 14.921875 -26.109375 C 11.773438 -26.109375 10.203125 -25.128906 10.203125 -23.171875 C 10.203125 -22.335938 10.492188 -21.660156 11.078125 -21.140625 C 11.660156 -20.628906 12.691406 -20.210938 14.171875 -19.890625 L 18.09375 -19.015625 C 21.320312 -18.328125 23.679688 -17.21875 25.171875 -15.6875 C 26.660156 -14.164062 27.40625 -12.113281 27.40625 -9.53125 C 27.40625 -7.519531 26.90625 -5.742188 25.90625 -4.203125 C 24.90625 -2.671875 23.460938 -1.484375 21.578125 -0.640625 C 19.703125 0.191406 17.46875 0.609375 14.875 0.609375 Z M 14.875 0.609375 "/></g></g></g><g clip-path="url(#76bd79395a)"><path fill="#afd4cb" d="M 15.121094 809.460938 L 427.25 809.460938 L 427.25 989.765625 L 15.121094 989.765625 Z M 15.121094 809.460938 " fill-opacity="1" fill-rule="nonzero"/></g><g fill="#000000" fill-opacity="1"><g transform="translate(145.197106, 871.466176)"><g><path d="M 32.1875 -42.125 L 32.1875 -35.15625 L 13.796875 -35.15625 L 13.796875 -24 L 30.484375 -24 L 30.484375 -17.109375 L 13.796875 -17.109375 L 13.796875 0 L 5.46875 0 L 5.46875 -42.125 Z M 32.1875 -42.125 "/></g></g></g><g fill="#000000" fill-opacity="1"><g transform="translate(179.255056, 871.466176)"><g><path d="M 13.796875 -18.5 L 13.796875 -6.96875 L 33.921875 -6.96875 L 33.921875 0 L 5.46875 0 L 5.46875 -42.125 L 33.453125 -42.125 L 33.453125 -35.15625 L 13.796875 -35.15625 L 13.796875 -25.296875 L 30.984375 -25.296875 L 30.984375 -18.5 Z M 13.796875 -18.5 "/></g></g></g><g fill="#000000" fill-opacity="1"><g transform="translate(215.474049, 871.466176)"><g><path d="M 25.046875 0 L 14.984375 0 L 0.75 -42.125 L 9.59375 -42.125 L 19.828125 -10.71875 L 20.546875 -10.71875 L 30.625 -42.125 L 39.25 -42.125 Z M 25.046875 0 "/></g></g></g><g fill="#000000" fill-opacity="1"><g transform="translate(255.467649, 871.466176)"><g><path d="M 2.21875 0 L 2.21875 -6.890625 L 12.390625 -6.890625 L 12.390625 -33.109375 L 11.734375 -33.28125 C 10.285156 -32.59375 8.863281 -32.046875 7.46875 -31.640625 C 6.082031 -31.234375 4.492188 -30.914062 2.703125 -30.6875 L 2.703125 -37.8125 C 7.378906 -38.789062 11.15625 -40.226562 14.03125 -42.125 L 20.625 -42.125 L 20.625 -6.890625 L 29.703125 -6.890625 L 29.703125 0 Z M 2.21875 0 "/></g></g></g><g fill="#000000" fill-opacity="1"><g transform="translate(89.70484, 953.869579)"><g><path d="M 32.1875 -42.125 L 32.1875 -35.15625 L 13.796875 -35.15625 L 13.796875 -24 L 30.484375 -24 L 30.484375 -17.109375 L 13.796875 -17.109375 L 13.796875 0 L 5.46875 0 L 5.46875 -42.125 Z M 32.1875 -42.125 "/></g></g></g><g fill="#000000" fill-opacity="1"><g transform="translate(123.762789, 953.869579)"><g><path d="M 31.40625 -14.09375 L 10.984375 -14.09375 C 11.210938 -11.320312 12 -9.304688 13.34375 -8.046875 C 14.6875 -6.796875 16.519531 -6.171875 18.84375 -6.171875 C 20.664062 -6.171875 22.144531 -6.507812 23.28125 -7.1875 C 24.414062 -7.875 25.328125 -8.90625 26.015625 -10.28125 L 26.625 -10.28125 L 31.921875 -6.890625 C 30.890625 -4.660156 29.328125 -2.851562 27.234375 -1.46875 C 25.140625 -0.0820312 22.34375 0.609375 18.84375 0.609375 C 15.5625 0.609375 12.722656 -0.015625 10.328125 -1.265625 C 7.941406 -2.515625 6.097656 -4.375 4.796875 -6.84375 C 3.503906 -9.3125 2.859375 -12.320312 2.859375 -15.875 C 2.859375 -19.488281 3.535156 -22.535156 4.890625 -25.015625 C 6.253906 -27.492188 8.097656 -29.34375 10.421875 -30.5625 C 12.753906 -31.78125 15.367188 -32.390625 18.265625 -32.390625 C 22.765625 -32.390625 26.207031 -31.195312 28.59375 -28.8125 C 30.988281 -26.4375 32.1875 -22.941406 32.1875 -18.328125 C 32.1875 -16.648438 32.128906 -15.351562 32.015625 -14.4375 Z M 24.546875 -19.25 C 24.472656 -21.664062 23.910156 -23.425781 22.859375 -24.53125 C 21.816406 -25.632812 20.285156 -26.1875 18.265625 -26.1875 C 14.234375 -26.1875 11.863281 -23.875 11.15625 -19.25 Z M 24.546875 -19.25 "/></g></g></g><g fill="#000000" fill-opacity="1"><g transform="translate(158.310581, 953.869579)"><g><path d="M 12.390625 0.609375 C 10.359375 0.609375 8.59375 0.234375 7.09375 -0.515625 C 5.59375 -1.265625 4.4375 -2.363281 3.625 -3.8125 C 2.820312 -5.269531 2.421875 -7.015625 2.421875 -9.046875 C 2.421875 -10.929688 2.820312 -12.507812 3.625 -13.78125 C 4.4375 -15.0625 5.6875 -16.109375 7.375 -16.921875 C 9.0625 -17.742188 11.269531 -18.375 14 -18.8125 C 15.90625 -19.125 17.351562 -19.460938 18.34375 -19.828125 C 19.332031 -20.191406 20 -20.601562 20.34375 -21.0625 C 20.6875 -21.519531 20.859375 -22.109375 20.859375 -22.828125 C 20.859375 -23.835938 20.503906 -24.613281 19.796875 -25.15625 C 19.085938 -25.695312 17.90625 -25.96875 16.25 -25.96875 C 14.476562 -25.96875 12.796875 -25.570312 11.203125 -24.78125 C 9.609375 -23.988281 8.226562 -22.953125 7.0625 -21.671875 L 6.484375 -21.671875 L 3.140625 -26.71875 C 4.753906 -28.5 6.722656 -29.890625 9.046875 -30.890625 C 11.367188 -31.890625 13.90625 -32.390625 16.65625 -32.390625 C 20.863281 -32.390625 23.90625 -31.492188 25.78125 -29.703125 C 27.664062 -27.921875 28.609375 -25.390625 28.609375 -22.109375 L 28.609375 -8.296875 C 28.609375 -6.878906 29.234375 -6.171875 30.484375 -6.171875 C 30.960938 -6.171875 31.4375 -6.253906 31.90625 -6.421875 L 32.296875 -6.3125 L 32.875 -0.75 C 32.4375 -0.457031 31.820312 -0.21875 31.03125 -0.03125 C 30.25 0.144531 29.382812 0.234375 28.4375 0.234375 C 26.539062 0.234375 25.054688 -0.128906 23.984375 -0.859375 C 22.921875 -1.585938 22.160156 -2.734375 21.703125 -4.296875 L 21.09375 -4.34375 C 19.539062 -1.039062 16.640625 0.609375 12.390625 0.609375 Z M 14.921875 -5.359375 C 16.765625 -5.359375 18.238281 -5.976562 19.34375 -7.21875 C 20.445312 -8.457031 21 -10.179688 21 -12.390625 L 21 -15.625 L 20.453125 -15.734375 C 19.972656 -15.347656 19.34375 -15.023438 18.5625 -14.765625 C 17.789062 -14.503906 16.675781 -14.25 15.21875 -14 C 13.488281 -13.71875 12.242188 -13.222656 11.484375 -12.515625 C 10.722656 -11.816406 10.34375 -10.820312 10.34375 -9.53125 C 10.34375 -8.175781 10.742188 -7.140625 11.546875 -6.421875 C 12.359375 -5.710938 13.484375 -5.359375 14.921875 -5.359375 Z M 14.921875 -5.359375 "/></g></g></g><g fill="#000000" fill-opacity="1"><g transform="translate(191.821074, 953.869579)"><g><path d="M 21.921875 -7.578125 L 24 -1.671875 C 23.132812 -0.960938 22.046875 -0.40625 20.734375 0 C 19.429688 0.40625 17.957031 0.609375 16.3125 0.609375 C 12.875 0.609375 10.257812 -0.328125 8.46875 -2.203125 C 6.6875 -4.078125 5.796875 -6.800781 5.796875 -10.375 L 5.796875 -25.46875 L 0.953125 -25.46875 L 0.953125 -31.8125 L 5.796875 -31.8125 L 5.796875 -38.015625 L 13.78125 -39.3125 L 13.78125 -31.8125 L 22.796875 -31.8125 L 22.796875 -25.46875 L 13.78125 -25.46875 L 13.78125 -10.953125 C 13.78125 -9.378906 14.101562 -8.226562 14.75 -7.5 C 15.40625 -6.78125 16.359375 -6.421875 17.609375 -6.421875 C 19.023438 -6.421875 20.265625 -6.804688 21.328125 -7.578125 Z M 21.921875 -7.578125 "/></g></g></g><g fill="#000000" fill-opacity="1"><g transform="translate(216.514534, 953.869579)"><g><path d="M 14.546875 0.609375 C 10.972656 0.609375 8.335938 -0.363281 6.640625 -2.3125 C 4.941406 -4.269531 4.09375 -7.070312 4.09375 -10.71875 L 4.09375 -31.78125 L 12.078125 -31.78125 L 12.078125 -11.734375 C 12.078125 -9.785156 12.492188 -8.363281 13.328125 -7.46875 C 14.160156 -6.582031 15.453125 -6.140625 17.203125 -6.140625 C 19.410156 -6.140625 21.128906 -6.863281 22.359375 -8.3125 C 23.585938 -9.757812 24.203125 -12.039062 24.203125 -15.15625 L 24.203125 -31.78125 L 32.1875 -31.78125 L 32.1875 0 L 24.515625 0 L 24.515625 -4.671875 L 23.921875 -4.8125 C 22.898438 -2.988281 21.65625 -1.628906 20.1875 -0.734375 C 18.71875 0.160156 16.835938 0.609375 14.546875 0.609375 Z M 14.546875 0.609375 "/></g></g></g><g fill="#000000" fill-opacity="1"><g transform="translate(253.280984, 953.869579)"><g><path d="M 4.578125 0 L 4.578125 -31.78125 L 12.328125 -31.78125 L 12.328125 -27.0625 L 12.9375 -26.9375 C 13.707031 -28.707031 14.71875 -30.003906 15.96875 -30.828125 C 17.21875 -31.660156 18.734375 -32.078125 20.515625 -32.078125 C 22.316406 -32.078125 23.691406 -31.769531 24.640625 -31.15625 L 23.28125 -24.265625 L 22.671875 -24.140625 C 22.160156 -24.359375 21.660156 -24.515625 21.171875 -24.609375 C 20.691406 -24.703125 20.109375 -24.75 19.421875 -24.75 C 17.191406 -24.75 15.488281 -23.96875 14.3125 -22.40625 C 13.144531 -20.84375 12.5625 -18.332031 12.5625 -14.875 L 12.5625 0 Z M 4.578125 0 "/></g></g></g><g fill="#000000" fill-opacity="1"><g transform="translate(278.204956, 953.869579)"><g><path d="M 31.40625 -14.09375 L 10.984375 -14.09375 C 11.210938 -11.320312 12 -9.304688 13.34375 -8.046875 C 14.6875 -6.796875 16.519531 -6.171875 18.84375 -6.171875 C 20.664062 -6.171875 22.144531 -6.507812 23.28125 -7.1875 C 24.414062 -7.875 25.328125 -8.90625 26.015625 -10.28125 L 26.625 -10.28125 L 31.921875 -6.890625 C 30.890625 -4.660156 29.328125 -2.851562 27.234375 -1.46875 C 25.140625 -0.0820312 22.34375 0.609375 18.84375 0.609375 C 15.5625 0.609375 12.722656 -0.015625 10.328125 -1.265625 C 7.941406 -2.515625 6.097656 -4.375 4.796875 -6.84375 C 3.503906 -9.3125 2.859375 -12.320312 2.859375 -15.875 C 2.859375 -19.488281 3.535156 -22.535156 4.890625 -25.015625 C 6.253906 -27.492188 8.097656 -29.34375 10.421875 -30.5625 C 12.753906 -31.78125 15.367188 -32.390625 18.265625 -32.390625 C 22.765625 -32.390625 26.207031 -31.195312 28.59375 -28.8125 C 30.988281 -26.4375 32.1875 -22.941406 32.1875 -18.328125 C 32.1875 -16.648438 32.128906 -15.351562 32.015625 -14.4375 Z M 24.546875 -19.25 C 24.472656 -21.664062 23.910156 -23.425781 22.859375 -24.53125 C 21.816406 -25.632812 20.285156 -26.1875 18.265625 -26.1875 C 14.234375 -26.1875 11.863281 -23.875 11.15625 -19.25 Z M 24.546875 -19.25 "/></g></g></g><g fill="#000000" fill-opacity="1"><g transform="translate(312.752759, 953.869579)"><g><path d="M 14.875 0.609375 C 12.695312 0.609375 10.707031 0.351562 8.90625 -0.15625 C 7.101562 -0.664062 5.5625 -1.367188 4.28125 -2.265625 C 3 -3.160156 2.050781 -4.179688 1.4375 -5.328125 L 5.875 -10.109375 L 6.484375 -10.109375 C 7.535156 -8.691406 8.78125 -7.625 10.21875 -6.90625 C 11.664062 -6.195312 13.234375 -5.84375 14.921875 -5.84375 C 16.484375 -5.84375 17.65625 -6.117188 18.4375 -6.671875 C 19.226562 -7.234375 19.625 -8.035156 19.625 -9.078125 C 19.625 -9.878906 19.335938 -10.554688 18.765625 -11.109375 C 18.203125 -11.660156 17.285156 -12.085938 16.015625 -12.390625 L 11.8125 -13.40625 C 8.664062 -14.144531 6.363281 -15.285156 4.90625 -16.828125 C 3.457031 -18.378906 2.734375 -20.347656 2.734375 -22.734375 C 2.734375 -24.710938 3.238281 -26.429688 4.25 -27.890625 C 5.257812 -29.347656 6.679688 -30.460938 8.515625 -31.234375 C 10.347656 -32.003906 12.484375 -32.390625 14.921875 -32.390625 C 17.785156 -32.390625 20.160156 -31.972656 22.046875 -31.140625 C 23.929688 -30.316406 25.398438 -29.21875 26.453125 -27.84375 L 22.1875 -23.21875 L 21.609375 -23.21875 C 20.722656 -24.21875 19.726562 -24.945312 18.625 -25.40625 C 17.519531 -25.875 16.285156 -26.109375 14.921875 -26.109375 C 11.773438 -26.109375 10.203125 -25.128906 10.203125 -23.171875 C 10.203125 -22.335938 10.492188 -21.660156 11.078125 -21.140625 C 11.660156 -20.628906 12.691406 -20.210938 14.171875 -19.890625 L 18.09375 -19.015625 C 21.320312 -18.328125 23.679688 -17.21875 25.171875 -15.6875 C 26.660156 -14.164062 27.40625 -12.113281 27.40625 -9.53125 C 27.40625 -7.519531 26.90625 -5.742188 25.90625 -4.203125 C 24.90625 -2.671875 23.460938 -1.484375 21.578125 -0.640625 C 19.703125 0.191406 17.46875 0.609375 14.875 0.609375 Z M 14.875 0.609375 "/></g></g></g><g clip-path="url(#fbcfed5d68)"><path fill="#afd4cb" d="M 15.121094 1150.863281 L 427.25 1150.863281 L 427.25 1331.167969 L 15.121094 1331.167969 Z M 15.121094 1150.863281 " fill-opacity="1" fill-rule="nonzero"/></g><g fill="#000000" fill-opacity="1"><g transform="translate(161.489116, 1212.868429)"><g><path d="M 21.75 -42.125 C 24.769531 -42.125 27.347656 -41.570312 29.484375 -40.46875 C 31.628906 -39.363281 33.25 -37.816406 34.34375 -35.828125 C 35.4375 -33.835938 35.984375 -31.53125 35.984375 -28.90625 C 35.984375 -26.269531 35.4375 -23.960938 34.34375 -21.984375 C 33.25 -20.003906 31.628906 -18.460938 29.484375 -17.359375 C 27.347656 -16.253906 24.769531 -15.703125 21.75 -15.703125 L 13.796875 -15.703125 L 13.796875 0 L 5.46875 0 L 5.46875 -42.125 Z M 20.65625 -22.296875 C 25.289062 -22.296875 27.609375 -24.5 27.609375 -28.90625 C 27.609375 -33.320312 25.289062 -35.53125 20.65625 -35.53125 L 13.796875 -35.53125 L 13.796875 -22.296875 Z M 20.65625 -22.296875 "/></g></g></g><g fill="#000000" fill-opacity="1"><g transform="translate(199.984396, 1212.868429)"><g><path d="M 13.796875 -18.5 L 13.796875 -6.96875 L 33.921875 -6.96875 L 33.921875 0 L 5.46875 0 L 5.46875 -42.125 L 33.453125 -42.125 L 33.453125 -35.15625 L 13.796875 -35.15625 L 13.796875 -25.296875 L 30.984375 -25.296875 L 30.984375 -18.5 Z M 13.796875 -18.5 "/></g></g></g><g fill="#000000" fill-opacity="1"><g transform="translate(236.203389, 1212.868429)"><g><path d="M 32.1875 -42.125 L 32.1875 -35.15625 L 13.796875 -35.15625 L 13.796875 -24 L 30.484375 -24 L 30.484375 -17.109375 L 13.796875 -17.109375 L 13.796875 0 L 5.46875 0 L 5.46875 -42.125 Z M 32.1875 -42.125 "/></g></g></g><g fill="#000000" fill-opacity="1"><g transform="translate(89.70484, 1295.271831)"><g><path d="M 32.1875 -42.125 L 32.1875 -35.15625 L 13.796875 -35.15625 L 13.796875 -24 L 30.484375 -24 L 30.484375 -17.109375 L 13.796875 -17.109375 L 13.796875 0 L 5.46875 0 L 5.46875 -42.125 Z M 32.1875 -42.125 "/></g></g></g><g fill="#000000" fill-opacity="1"><g transform="translate(123.762789, 1295.271831)"><g><path d="M 31.40625 -14.09375 L 10.984375 -14.09375 C 11.210938 -11.320312 12 -9.304688 13.34375 -8.046875 C 14.6875 -6.796875 16.519531 -6.171875 18.84375 -6.171875 C 20.664062 -6.171875 22.144531 -6.507812 23.28125 -7.1875 C 24.414062 -7.875 25.328125 -8.90625 26.015625 -10.28125 L 26.625 -10.28125 L 31.921875 -6.890625 C 30.890625 -4.660156 29.328125 -2.851562 27.234375 -1.46875 C 25.140625 -0.0820312 22.34375 0.609375 18.84375 0.609375 C 15.5625 0.609375 12.722656 -0.015625 10.328125 -1.265625 C 7.941406 -2.515625 6.097656 -4.375 4.796875 -6.84375 C 3.503906 -9.3125 2.859375 -12.320312 2.859375 -15.875 C 2.859375 -19.488281 3.535156 -22.535156 4.890625 -25.015625 C 6.253906 -27.492188 8.097656 -29.34375 10.421875 -30.5625 C 12.753906 -31.78125 15.367188 -32.390625 18.265625 -32.390625 C 22.765625 -32.390625 26.207031 -31.195312 28.59375 -28.8125 C 30.988281 -26.4375 32.1875 -22.941406 32.1875 -18.328125 C 32.1875 -16.648438 32.128906 -15.351562 32.015625 -14.4375 Z M 24.546875 -19.25 C 24.472656 -21.664062 23.910156 -23.425781 22.859375 -24.53125 C 21.816406 -25.632812 20.285156 -26.1875 18.265625 -26.1875 C 14.234375 -26.1875 11.863281 -23.875 11.15625 -19.25 Z M 24.546875 -19.25 "/></g></g></g><g fill="#000000" fill-opacity="1"><g transform="translate(158.310581, 1295.271831)"><g><path d="M 12.390625 0.609375 C 10.359375 0.609375 8.59375 0.234375 7.09375 -0.515625 C 5.59375 -1.265625 4.4375 -2.363281 3.625 -3.8125 C 2.820312 -5.269531 2.421875 -7.015625 2.421875 -9.046875 C 2.421875 -10.929688 2.820312 -12.507812 3.625 -13.78125 C 4.4375 -15.0625 5.6875 -16.109375 7.375 -16.921875 C 9.0625 -17.742188 11.269531 -18.375 14 -18.8125 C 15.90625 -19.125 17.351562 -19.460938 18.34375 -19.828125 C 19.332031 -20.191406 20 -20.601562 20.34375 -21.0625 C 20.6875 -21.519531 20.859375 -22.109375 20.859375 -22.828125 C 20.859375 -23.835938 20.503906 -24.613281 19.796875 -25.15625 C 19.085938 -25.695312 17.90625 -25.96875 16.25 -25.96875 C 14.476562 -25.96875 12.796875 -25.570312 11.203125 -24.78125 C 9.609375 -23.988281 8.226562 -22.953125 7.0625 -21.671875 L 6.484375 -21.671875 L 3.140625 -26.71875 C 4.753906 -28.5 6.722656 -29.890625 9.046875 -30.890625 C 11.367188 -31.890625 13.90625 -32.390625 16.65625 -32.390625 C 20.863281 -32.390625 23.90625 -31.492188 25.78125 -29.703125 C 27.664062 -27.921875 28.609375 -25.390625 28.609375 -22.109375 L 28.609375 -8.296875 C 28.609375 -6.878906 29.234375 -6.171875 30.484375 -6.171875 C 30.960938 -6.171875 31.4375 -6.253906 31.90625 -6.421875 L 32.296875 -6.3125 L 32.875 -0.75 C 32.4375 -0.457031 31.820312 -0.21875 31.03125 -0.03125 C 30.25 0.144531 29.382812 0.234375 28.4375 0.234375 C 26.539062 0.234375 25.054688 -0.128906 23.984375 -0.859375 C 22.921875 -1.585938 22.160156 -2.734375 21.703125 -4.296875 L 21.09375 -4.34375 C 19.539062 -1.039062 16.640625 0.609375 12.390625 0.609375 Z M 14.921875 -5.359375 C 16.765625 -5.359375 18.238281 -5.976562 19.34375 -7.21875 C 20.445312 -8.457031 21 -10.179688 21 -12.390625 L 21 -15.625 L 20.453125 -15.734375 C 19.972656 -15.347656 19.34375 -15.023438 18.5625 -14.765625 C 17.789062 -14.503906 16.675781 -14.25 15.21875 -14 C 13.488281 -13.71875 12.242188 -13.222656 11.484375 -12.515625 C 10.722656 -11.816406 10.34375 -10.820312 10.34375 -9.53125 C 10.34375 -8.175781 10.742188 -7.140625 11.546875 -6.421875 C 12.359375 -5.710938 13.484375 -5.359375 14.921875 -5.359375 Z M 14.921875 -5.359375 "/></g></g></g><g fill="#000000" fill-opacity="1"><g transform="translate(191.821074, 1295.271831)"><g><path d="M 21.921875 -7.578125 L 24 -1.671875 C 23.132812 -0.960938 22.046875 -0.40625 20.734375 0 C 19.429688 0.40625 17.957031 0.609375 16.3125 0.609375 C 12.875 0.609375 10.257812 -0.328125 8.46875 -2.203125 C 6.6875 -4.078125 5.796875 -6.800781 5.796875 -10.375 L 5.796875 -25.46875 L 0.953125 -25.46875 L 0.953125 -31.8125 L 5.796875 -31.8125 L 5.796875 -38.015625 L 13.78125 -39.3125 L 13.78125 -31.8125 L 22.796875 -31.8125 L 22.796875 -25.46875 L 13.78125 -25.46875 L 13.78125 -10.953125 C 13.78125 -9.378906 14.101562 -8.226562 14.75 -7.5 C 15.40625 -6.78125 16.359375 -6.421875 17.609375 -6.421875 C 19.023438 -6.421875 20.265625 -6.804688 21.328125 -7.578125 Z M 21.921875 -7.578125 "/></g></g></g><g fill="#000000" fill-opacity="1"><g transform="translate(216.514534, 1295.271831)"><g><path d="M 14.546875 0.609375 C 10.972656 0.609375 8.335938 -0.363281 6.640625 -2.3125 C 4.941406 -4.269531 4.09375 -7.070312 4.09375 -10.71875 L 4.09375 -31.78125 L 12.078125 -31.78125 L 12.078125 -11.734375 C 12.078125 -9.785156 12.492188 -8.363281 13.328125 -7.46875 C 14.160156 -6.582031 15.453125 -6.140625 17.203125 -6.140625 C 19.410156 -6.140625 21.128906 -6.863281 22.359375 -8.3125 C 23.585938 -9.757812 24.203125 -12.039062 24.203125 -15.15625 L 24.203125 -31.78125 L 32.1875 -31.78125 L 32.1875 0 L 24.515625 0 L 24.515625 -4.671875 L 23.921875 -4.8125 C 22.898438 -2.988281 21.65625 -1.628906 20.1875 -0.734375 C 18.71875 0.160156 16.835938 0.609375 14.546875 0.609375 Z M 14.546875 0.609375 "/></g></g></g><g fill="#000000" fill-opacity="1"><g transform="translate(253.280984, 1295.271831)"><g><path d="M 4.578125 0 L 4.578125 -31.78125 L 12.328125 -31.78125 L 12.328125 -27.0625 L 12.9375 -26.9375 C 13.707031 -28.707031 14.71875 -30.003906 15.96875 -30.828125 C 17.21875 -31.660156 18.734375 -32.078125 20.515625 -32.078125 C 22.316406 -32.078125 23.691406 -31.769531 24.640625 -31.15625 L 23.28125 -24.265625 L 22.671875 -24.140625 C 22.160156 -24.359375 21.660156 -24.515625 21.171875 -24.609375 C 20.691406 -24.703125 20.109375 -24.75 19.421875 -24.75 C 17.191406 -24.75 15.488281 -23.96875 14.3125 -22.40625 C 13.144531 -20.84375 12.5625 -18.332031 12.5625 -14.875 L 12.5625 0 Z M 4.578125 0 "/></g></g></g><g fill="#000000" fill-opacity="1"><g transform="translate(278.204956, 1295.271831)"><g><path d="M 31.40625 -14.09375 L 10.984375 -14.09375 C 11.210938 -11.320312 12 -9.304688 13.34375 -8.046875 C 14.6875 -6.796875 16.519531 -6.171875 18.84375 -6.171875 C 20.664062 -6.171875 22.144531 -6.507812 23.28125 -7.1875 C 24.414062 -7.875 25.328125 -8.90625 26.015625 -10.28125 L 26.625 -10.28125 L 31.921875 -6.890625 C 30.890625 -4.660156 29.328125 -2.851562 27.234375 -1.46875 C 25.140625 -0.0820312 22.34375 0.609375 18.84375 0.609375 C 15.5625 0.609375 12.722656 -0.015625 10.328125 -1.265625 C 7.941406 -2.515625 6.097656 -4.375 4.796875 -6.84375 C 3.503906 -9.3125 2.859375 -12.320312 2.859375 -15.875 C 2.859375 -19.488281 3.535156 -22.535156 4.890625 -25.015625 C 6.253906 -27.492188 8.097656 -29.34375 10.421875 -30.5625 C 12.753906 -31.78125 15.367188 -32.390625 18.265625 -32.390625 C 22.765625 -32.390625 26.207031 -31.195312 28.59375 -28.8125 C 30.988281 -26.4375 32.1875 -22.941406 32.1875 -18.328125 C 32.1875 -16.648438 32.128906 -15.351562 32.015625 -14.4375 Z M 24.546875 -19.25 C 24.472656 -21.664062 23.910156 -23.425781 22.859375 -24.53125 C 21.816406 -25.632812 20.285156 -26.1875 18.265625 -26.1875 C 14.234375 -26.1875 11.863281 -23.875 11.15625 -19.25 Z M 24.546875 -19.25 "/></g></g></g><g fill="#000000" fill-opacity="1"><g transform="translate(312.752759, 1295.271831)"><g><path d="M 14.875 0.609375 C 12.695312 0.609375 10.707031 0.351562 8.90625 -0.15625 C 7.101562 -0.664062 5.5625 -1.367188 4.28125 -2.265625 C 3 -3.160156 2.050781 -4.179688 1.4375 -5.328125 L 5.875 -10.109375 L 6.484375 -10.109375 C 7.535156 -8.691406 8.78125 -7.625 10.21875 -6.90625 C 11.664062 -6.195312 13.234375 -5.84375 14.921875 -5.84375 C 16.484375 -5.84375 17.65625 -6.117188 18.4375 -6.671875 C 19.226562 -7.234375 19.625 -8.035156 19.625 -9.078125 C 19.625 -9.878906 19.335938 -10.554688 18.765625 -11.109375 C 18.203125 -11.660156 17.285156 -12.085938 16.015625 -12.390625 L 11.8125 -13.40625 C 8.664062 -14.144531 6.363281 -15.285156 4.90625 -16.828125 C 3.457031 -18.378906 2.734375 -20.347656 2.734375 -22.734375 C 2.734375 -24.710938 3.238281 -26.429688 4.25 -27.890625 C 5.257812 -29.347656 6.679688 -30.460938 8.515625 -31.234375 C 10.347656 -32.003906 12.484375 -32.390625 14.921875 -32.390625 C 17.785156 -32.390625 20.160156 -31.972656 22.046875 -31.140625 C 23.929688 -30.316406 25.398438 -29.21875 26.453125 -27.84375 L 22.1875 -23.21875 L 21.609375 -23.21875 C 20.722656 -24.21875 19.726562 -24.945312 18.625 -25.40625 C 17.519531 -25.875 16.285156 -26.109375 14.921875 -26.109375 C 11.773438 -26.109375 10.203125 -25.128906 10.203125 -23.171875 C 10.203125 -22.335938 10.492188 -21.660156 11.078125 -21.140625 C 11.660156 -20.628906 12.691406 -20.210938 14.171875 -19.890625 L 18.09375 -19.015625 C 21.320312 -18.328125 23.679688 -17.21875 25.171875 -15.6875 C 26.660156 -14.164062 27.40625 -12.113281 27.40625 -9.53125 C 27.40625 -7.519531 26.90625 -5.742188 25.90625 -4.203125 C 24.90625 -2.671875 23.460938 -1.484375 21.578125 -0.640625 C 19.703125 0.191406 17.46875 0.609375 14.875 0.609375 Z M 14.875 0.609375 "/></g></g></g><path stroke-linecap="butt" transform="matrix(0.534253, 0.591226, -0.591397, 0.534407, 427.2758, 574.382803)" fill="none" stroke-linejoin="miter" d="M 0.00111633 4.998478 L 535.158788 4.997426 " stroke="#000000" stroke-width="10" stroke-opacity="1" stroke-miterlimit="4"/><path stroke-linecap="round" transform="matrix(5.342529, 5.912257, -5.913968, 5.344075, 712.900667, 896.411222)" fill="none" stroke-linejoin="round" d="M -2.500214 -1.499985 L -0.49973 0.0000637191 L -2.499965 1.500288 " stroke="#000000" stroke-width="1" stroke-opacity="1" stroke-miterlimit="4"/><path stroke-linecap="butt" transform="matrix(0.796193, -0.0102091, 0.0102197, 0.797018, 424.105511, 896.22093)" fill="none" stroke-linejoin="miter" d="M -0.000468119 5.001265 L 357.383884 5.001456 " stroke="#000000" stroke-width="10" stroke-opacity="1" stroke-miterlimit="4"/><path stroke-linecap="round" transform="matrix(7.961927, -0.102091, 0.102197, 7.970176, 712.685659, 896.506344)" fill="none" stroke-linejoin="round" d="M -2.499826 -1.500201 L -0.500199 0.000148525 L -2.500071 1.500239 " stroke="#000000" stroke-width="1" stroke-opacity="1" stroke-miterlimit="4"/><path stroke-linecap="butt" transform="matrix(0.511957, -0.611712, 0.611255, 0.511575, 421.099238, 1239.048211)" fill="none" stroke-linejoin="miter" d="M 0.00118762 5.000213 L 559.586819 5.00093 " stroke="#000000" stroke-width="10" stroke-opacity="1" stroke-miterlimit="4"/><path stroke-linecap="round" transform="matrix(5.119573, -6.117116, 6.112549, 5.115751, 713.199278, 896.242479)" fill="none" stroke-linejoin="round" d="M -2.500242 -1.49997 L -0.499884 0.0000884204 L -2.499729 1.49996 " stroke="#000000" stroke-width="1" stroke-opacity="1" stroke-miterlimit="4"/><path stroke-linecap="butt" transform="matrix(0.796559, -0.0167592, 0.0167665, 0.796907, 1219.963102, 892.518112)" fill="none" stroke-linejoin="miter" d="M -0.000108484 5.001579 L 174.078708 5.000888 " stroke="#000000" stroke-width="10" stroke-opacity="1" stroke-miterlimit="4"/><path stroke-linecap="round" transform="matrix(7.965591, -0.167592, 0.167665, 7.969068, 1362.694092, 893.501414)" fill="none" stroke-linejoin="round" d="M -2.500155 -1.500248 L -0.500047 0.0000902787 L -2.500048 1.500125 " stroke="#000000" stroke-width="1" stroke-opacity="1" stroke-miterlimit="4"/><g clip-path="url(#db36ec8f3b)"><path fill="#afd4cb" d="M 1990.152344 804.769531 L 2385.105469 804.769531 L 2385.105469 985.074219 L 1990.152344 985.074219 Z M 1990.152344 804.769531 " fill-opacity="1" fill-rule="nonzero"/></g><g fill="#000000" fill-opacity="1"><g transform="translate(2108.012609, 915.098661)"><g><path d="M 33.96875 -44.453125 L 33.96875 -37.09375 L 14.5625 -37.09375 L 14.5625 -25.328125 L 32.171875 -25.328125 L 32.171875 -18.0625 L 14.5625 -18.0625 L 14.5625 0 L 5.78125 0 L 5.78125 -44.453125 Z M 33.96875 -44.453125 "/></g></g></g><g fill="#000000" fill-opacity="1"><g transform="translate(2143.954083, 915.098661)"><g><path d="M 14.5625 -19.53125 L 14.5625 -7.359375 L 35.796875 -7.359375 L 35.796875 0 L 5.78125 0 L 5.78125 -44.453125 L 35.3125 -44.453125 L 35.3125 -37.09375 L 14.5625 -37.09375 L 14.5625 -26.703125 L 32.6875 -26.703125 L 32.6875 -19.53125 Z M 14.5625 -19.53125 "/></g></g></g><g fill="#000000" fill-opacity="1"><g transform="translate(2182.176114, 915.098661)"><g><path d="M 26.421875 0 L 15.8125 0 L 0.796875 -44.453125 L 10.125 -44.453125 L 20.921875 -11.3125 L 21.6875 -11.3125 L 32.328125 -44.453125 L 41.421875 -44.453125 Z M 26.421875 0 "/></g></g></g><g fill="#000000" fill-opacity="1"><g transform="translate(2224.381501, 915.098661)"><g><path d="M 2.34375 0 L 2.34375 -7.265625 L 13.078125 -7.265625 L 13.078125 -34.9375 L 12.375 -35.125 C 10.851562 -34.394531 9.359375 -33.816406 7.890625 -33.390625 C 6.421875 -32.960938 4.742188 -32.628906 2.859375 -32.390625 L 2.859375 -39.90625 C 7.785156 -40.9375 11.769531 -42.453125 14.8125 -44.453125 L 21.78125 -44.453125 L 21.78125 -7.265625 L 31.359375 -7.265625 L 31.359375 0 Z M 2.34375 0 "/></g></g></g><g clip-path="url(#f6f1ee133f)"><path fill="#afd4cb" d="M 1990.152344 1067.101562 L 2385.105469 1067.101562 L 2385.105469 1247.410156 L 1990.152344 1247.410156 Z M 1990.152344 1067.101562 " fill-opacity="1" fill-rule="nonzero"/></g><g fill="#000000" fill-opacity="1"><g transform="translate(2125.20973, 1177.431483)"><g><path d="M 22.953125 -44.453125 C 26.140625 -44.453125 28.863281 -43.867188 31.125 -42.703125 C 33.382812 -41.546875 35.09375 -39.914062 36.25 -37.8125 C 37.40625 -35.71875 37.984375 -33.28125 37.984375 -30.5 C 37.984375 -27.71875 37.40625 -25.285156 36.25 -23.203125 C 35.09375 -21.117188 33.382812 -19.492188 31.125 -18.328125 C 28.863281 -17.160156 26.140625 -16.578125 22.953125 -16.578125 L 14.5625 -16.578125 L 14.5625 0 L 5.78125 0 L 5.78125 -44.453125 Z M 21.796875 -23.53125 C 26.691406 -23.53125 29.140625 -25.851562 29.140625 -30.5 C 29.140625 -35.164062 26.691406 -37.5 21.796875 -37.5 L 14.5625 -37.5 L 14.5625 -23.53125 Z M 21.796875 -23.53125 "/></g></g></g><g fill="#000000" fill-opacity="1"><g transform="translate(2165.833934, 1177.431483)"><g><path d="M 14.5625 -19.53125 L 14.5625 -7.359375 L 35.796875 -7.359375 L 35.796875 0 L 5.78125 0 L 5.78125 -44.453125 L 35.3125 -44.453125 L 35.3125 -37.09375 L 14.5625 -37.09375 L 14.5625 -26.703125 L 32.6875 -26.703125 L 32.6875 -19.53125 Z M 14.5625 -19.53125 "/></g></g></g><g fill="#000000" fill-opacity="1"><g transform="translate(2204.055965, 1177.431483)"><g><path d="M 33.96875 -44.453125 L 33.96875 -37.09375 L 14.5625 -37.09375 L 14.5625 -25.328125 L 32.171875 -25.328125 L 32.171875 -18.0625 L 14.5625 -18.0625 L 14.5625 0 L 5.78125 0 L 5.78125 -44.453125 Z M 33.96875 -44.453125 "/></g></g></g><path stroke-linecap="butt" transform="matrix(0.798436, 0.00725058, -0.00723799, 0.79705, 1768.184968, 889.514815)" fill="none" stroke-linejoin="miter" d="M -0.000427332 4.999921 L 273.532221 5.001308 " stroke="#000000" stroke-width="10" stroke-opacity="1" stroke-miterlimit="4"/><path stroke-linecap="round" transform="matrix(7.984365, 0.0725058, -0.0723799, 7.970503, 1990.537954, 895.519778)" fill="none" stroke-linejoin="round" d="M -2.499763 -1.499995 L -0.499861 0.000105303 L -2.499967 1.499837 " stroke="#000000" stroke-width="1" stroke-opacity="1" stroke-miterlimit="4"/><path stroke-linecap="butt" transform="matrix(0.537808, -0.588592, 0.588436, 0.537666, 1765.205115, 890.808606)" fill="none" stroke-linejoin="miter" d="M 0.00174482 5.000346 L 407.900326 5.000226 " stroke="#000000" stroke-width="10" stroke-opacity="1" stroke-miterlimit="4"/><path stroke-linecap="round" transform="matrix(5.378081, -5.885921, 5.884362, 5.376657, 1990.208938, 650.466261)" fill="none" stroke-linejoin="round" d="M -2.500077 -1.499878 L -0.500118 0.0000451326 L -2.500041 1.499964 " stroke="#000000" stroke-width="1" stroke-opacity="1" stroke-miterlimit="4"/><path stroke-linecap="butt" transform="matrix(0.520137, 0.602983, -0.603558, 0.520633, 1771.166021, 890.897897)" fill="none" stroke-linejoin="miter" d="M -0.00084285 4.998932 L 421.411639 5.000631 " stroke="#000000" stroke-width="10" stroke-opacity="1" stroke-miterlimit="4"/><path stroke-linecap="round" transform="matrix(5.201374, 6.02983, -6.03558, 5.206335, 1989.939698, 1150.618756)" fill="none" stroke-linejoin="round" d="M -2.50014 -1.499896 L -0.499777 0.000054345 L -2.499837 1.500154 " stroke="#000000" stroke-width="1" stroke-opacity="1" stroke-miterlimit="4"/><g fill="#000000" fill-opacity="1"><g transform="translate(2.943588, 314.986561)"><g><path d="M 17.296875 0 L 7.21875 0 L 7.21875 -55.5625 L 21.59375 -55.5625 L 35.65625 -14.703125 L 36.453125 -14.703125 L 50.4375 -55.5625 L 64.46875 -55.5625 L 64.46875 0 L 54.046875 0 L 54.046875 -36.71875 L 53.09375 -36.875 L 40.25 0 L 31.09375 0 L 18.25 -36.875 L 17.296875 -36.71875 Z M 17.296875 0 "/></g></g></g><g fill="#000000" fill-opacity="1"><g transform="translate(74.664471, 314.986561)"><g><path d="M 19.1875 0.796875 C 14.476562 0.796875 11 -0.488281 8.75 -3.0625 C 6.507812 -5.632812 5.390625 -9.328125 5.390625 -14.140625 L 5.390625 -41.921875 L 15.921875 -41.921875 L 15.921875 -15.46875 C 15.921875 -12.90625 16.472656 -11.035156 17.578125 -9.859375 C 18.679688 -8.679688 20.382812 -8.09375 22.6875 -8.09375 C 25.601562 -8.09375 27.867188 -9.046875 29.484375 -10.953125 C 31.109375 -12.867188 31.921875 -15.882812 31.921875 -20 L 31.921875 -41.921875 L 42.453125 -41.921875 L 42.453125 0 L 32.34375 0 L 32.34375 -6.15625 L 31.546875 -6.34375 C 30.203125 -3.9375 28.5625 -2.144531 26.625 -0.96875 C 24.6875 0.207031 22.207031 0.796875 19.1875 0.796875 Z M 19.1875 0.796875 "/></g></g></g><g fill="#000000" fill-opacity="1"><g transform="translate(123.162534, 314.986561)"><g><path d="M 17.40625 0.796875 C 13.632812 0.796875 10.753906 -0.222656 8.765625 -2.265625 C 6.773438 -4.304688 5.78125 -7.40625 5.78125 -11.5625 L 5.78125 -58.765625 L 16.3125 -58.765625 L 16.3125 -11.96875 C 16.3125 -9.414062 17.375 -8.140625 19.5 -8.140625 C 20.101562 -8.140625 20.75 -8.238281 21.4375 -8.4375 L 21.96875 -8.28125 L 22.921875 -0.1875 C 22.335938 0.113281 21.5625 0.351562 20.59375 0.53125 C 19.632812 0.707031 18.570312 0.796875 17.40625 0.796875 Z M 17.40625 0.796875 "/></g></g></g><g fill="#000000" fill-opacity="1"><g transform="translate(147.259535, 314.986561)"><g><path d="M 28.921875 -10 L 31.65625 -2.203125 C 30.519531 -1.265625 29.085938 -0.53125 27.359375 0 C 25.640625 0.53125 23.691406 0.796875 21.515625 0.796875 C 16.972656 0.796875 13.523438 -0.4375 11.171875 -2.90625 C 8.816406 -5.375 7.640625 -8.96875 7.640625 -13.6875 L 7.640625 -33.59375 L 1.25 -33.59375 L 1.25 -41.96875 L 7.640625 -41.96875 L 7.640625 -50.140625 L 18.171875 -51.84375 L 18.171875 -41.96875 L 30.0625 -41.96875 L 30.0625 -33.59375 L 18.171875 -33.59375 L 18.171875 -14.4375 C 18.171875 -12.363281 18.597656 -10.847656 19.453125 -9.890625 C 20.316406 -8.941406 21.570312 -8.46875 23.21875 -8.46875 C 25.09375 -8.46875 26.726562 -8.976562 28.125 -10 Z M 28.921875 -10 "/></g></g></g><g fill="#000000" fill-opacity="1"><g transform="translate(179.832293, 314.986561)"><g><path d="M 11.28125 -46.9375 C 9.382812 -46.9375 7.835938 -47.515625 6.640625 -48.671875 C 5.453125 -49.828125 4.859375 -51.316406 4.859375 -53.140625 C 4.859375 -54.941406 5.453125 -56.414062 6.640625 -57.5625 C 7.835938 -58.71875 9.382812 -59.296875 11.28125 -59.296875 C 12.550781 -59.296875 13.679688 -59.03125 14.671875 -58.5 C 15.660156 -57.96875 16.425781 -57.238281 16.96875 -56.3125 C 17.507812 -55.382812 17.78125 -54.328125 17.78125 -53.140625 C 17.78125 -51.941406 17.507812 -50.875 16.96875 -49.9375 C 16.425781 -49 15.660156 -48.265625 14.671875 -47.734375 C 13.679688 -47.203125 12.550781 -46.9375 11.28125 -46.9375 Z M 6.046875 0 L 6.046875 -41.921875 L 16.578125 -41.921875 L 16.578125 0 Z M 6.046875 0 "/></g></g></g><g fill="#000000" fill-opacity="1"><g transform="translate(202.408978, 314.986561)"><g><path d="M 44.546875 -55.5625 L 44.546875 -46.328125 L 28.5 -46.328125 L 28.5 0 L 17.5625 0 L 17.5625 -46.328125 L 1.515625 -46.328125 L 1.515625 -55.5625 Z M 44.546875 -55.5625 "/></g></g></g><g fill="#000000" fill-opacity="1"><g transform="translate(248.474537, 314.986561)"><g><path d="M 16.34375 0.796875 C 13.65625 0.796875 11.320312 0.300781 9.34375 -0.6875 C 7.375 -1.675781 5.851562 -3.125 4.78125 -5.03125 C 3.71875 -6.945312 3.1875 -9.25 3.1875 -11.9375 C 3.1875 -14.414062 3.71875 -16.5 4.78125 -18.1875 C 5.851562 -19.875 7.503906 -21.253906 9.734375 -22.328125 C 11.960938 -23.410156 14.875 -24.238281 18.46875 -24.8125 C 20.976562 -25.21875 22.882812 -25.660156 24.1875 -26.140625 C 25.5 -26.628906 26.378906 -27.175781 26.828125 -27.78125 C 27.285156 -28.394531 27.515625 -29.171875 27.515625 -30.109375 C 27.515625 -31.453125 27.046875 -32.476562 26.109375 -33.1875 C 25.171875 -33.894531 23.613281 -34.25 21.4375 -34.25 C 19.101562 -34.25 16.882812 -33.726562 14.78125 -32.6875 C 12.675781 -31.644531 10.851562 -30.273438 9.3125 -28.578125 L 8.546875 -28.578125 L 4.140625 -35.234375 C 6.265625 -37.585938 8.859375 -39.421875 11.921875 -40.734375 C 14.992188 -42.054688 18.34375 -42.71875 21.96875 -42.71875 C 27.519531 -42.71875 31.535156 -41.539062 34.015625 -39.1875 C 36.503906 -36.832031 37.75 -33.488281 37.75 -29.15625 L 37.75 -10.953125 C 37.75 -9.078125 38.570312 -8.140625 40.21875 -8.140625 C 40.851562 -8.140625 41.472656 -8.25 42.078125 -8.46875 L 42.609375 -8.328125 L 43.375 -0.984375 C 42.789062 -0.609375 41.976562 -0.300781 40.9375 -0.0625 C 39.894531 0.175781 38.753906 0.296875 37.515625 0.296875 C 35.003906 0.296875 33.046875 -0.179688 31.640625 -1.140625 C 30.234375 -2.097656 29.226562 -3.601562 28.625 -5.65625 L 27.828125 -5.734375 C 25.773438 -1.378906 21.945312 0.796875 16.34375 0.796875 Z M 19.6875 -7.0625 C 22.125 -7.0625 24.066406 -7.878906 25.515625 -9.515625 C 26.972656 -11.148438 27.703125 -13.425781 27.703125 -16.34375 L 27.703125 -20.59375 L 26.984375 -20.75 C 26.347656 -20.25 25.515625 -19.828125 24.484375 -19.484375 C 23.460938 -19.140625 21.988281 -18.800781 20.0625 -18.46875 C 17.78125 -18.09375 16.140625 -17.441406 15.140625 -16.515625 C 14.140625 -15.585938 13.640625 -14.273438 13.640625 -12.578125 C 13.640625 -10.773438 14.171875 -9.40625 15.234375 -8.46875 C 16.304688 -7.53125 17.789062 -7.0625 19.6875 -7.0625 Z M 19.6875 -7.0625 "/></g></g></g><g fill="#000000" fill-opacity="1"><g transform="translate(292.677722, 314.986561)"><g><path d="M 19.609375 0.796875 C 16.742188 0.796875 14.117188 0.460938 11.734375 -0.203125 C 9.359375 -0.878906 7.328125 -1.804688 5.640625 -2.984375 C 3.953125 -4.160156 2.707031 -5.507812 1.90625 -7.03125 L 7.75 -13.34375 L 8.546875 -13.34375 C 9.941406 -11.46875 11.585938 -10.0625 13.484375 -9.125 C 15.390625 -8.1875 17.457031 -7.71875 19.6875 -7.71875 C 21.738281 -7.71875 23.285156 -8.082031 24.328125 -8.8125 C 25.367188 -9.550781 25.890625 -10.601562 25.890625 -11.96875 C 25.890625 -13.03125 25.515625 -13.921875 24.765625 -14.640625 C 24.015625 -15.367188 22.804688 -15.9375 21.140625 -16.34375 L 15.578125 -17.671875 C 11.421875 -18.660156 8.382812 -20.175781 6.46875 -22.21875 C 4.5625 -24.257812 3.609375 -26.847656 3.609375 -29.984375 C 3.609375 -32.597656 4.273438 -34.867188 5.609375 -36.796875 C 6.941406 -38.722656 8.816406 -40.191406 11.234375 -41.203125 C 13.648438 -42.210938 16.46875 -42.71875 19.6875 -42.71875 C 23.46875 -42.71875 26.597656 -42.171875 29.078125 -41.078125 C 31.554688 -39.992188 33.492188 -38.539062 34.890625 -36.71875 L 29.265625 -30.640625 L 28.5 -30.640625 C 27.34375 -31.953125 26.035156 -32.910156 24.578125 -33.515625 C 23.117188 -34.128906 21.488281 -34.4375 19.6875 -34.4375 C 15.53125 -34.4375 13.453125 -33.144531 13.453125 -30.5625 C 13.453125 -29.46875 13.835938 -28.578125 14.609375 -27.890625 C 15.390625 -27.210938 16.753906 -26.660156 18.703125 -26.234375 L 23.875 -25.09375 C 28.125 -24.175781 31.226562 -22.707031 33.1875 -20.6875 C 35.15625 -18.675781 36.140625 -15.972656 36.140625 -12.578125 C 36.140625 -9.921875 35.476562 -7.578125 34.15625 -5.546875 C 32.84375 -3.523438 30.945312 -1.960938 28.46875 -0.859375 C 25.988281 0.242188 23.035156 0.796875 19.609375 0.796875 Z M 19.609375 0.796875 "/></g></g></g><g fill="#000000" fill-opacity="1"><g transform="translate(331.331731, 314.986561)"><g><path d="M 6.046875 0 L 6.046875 -58.765625 L 16.578125 -58.765625 L 16.578125 -26.15625 L 17.59375 -26.15625 L 29.71875 -41.921875 L 40.40625 -41.921875 L 40.40625 -41.046875 L 26.15625 -22.65625 L 42 -0.953125 L 42 0 L 30.90625 0 L 17.59375 -17.671875 L 16.578125 -17.671875 L 16.578125 0 Z M 6.046875 0 "/></g></g></g><g fill="#000000" fill-opacity="1"><g transform="translate(373.406475, 314.986561)"><g/></g></g><g fill="#000000" fill-opacity="1"><g transform="translate(391.764296, 314.986561)"><g><path d="M 26.609375 -22.34375 L 3.3125 -22.34375 L 3.3125 -31.625 L 26.609375 -31.625 Z M 26.609375 -22.34375 "/></g></g></g><g fill="#000000" fill-opacity="1"><g transform="translate(421.752507, 314.986561)"><g/></g></g><g fill="#000000" fill-opacity="1"><g transform="translate(440.110329, 314.986561)"><g><path d="M 17.296875 0 L 7.21875 0 L 7.21875 -55.5625 L 21.59375 -55.5625 L 35.65625 -14.703125 L 36.453125 -14.703125 L 50.4375 -55.5625 L 64.46875 -55.5625 L 64.46875 0 L 54.046875 0 L 54.046875 -36.71875 L 53.09375 -36.875 L 40.25 0 L 31.09375 0 L 18.25 -36.875 L 17.296875 -36.71875 Z M 17.296875 0 "/></g></g></g><g fill="#000000" fill-opacity="1"><g transform="translate(511.831224, 314.986561)"><g><path d="M 19.1875 0.796875 C 14.476562 0.796875 11 -0.488281 8.75 -3.0625 C 6.507812 -5.632812 5.390625 -9.328125 5.390625 -14.140625 L 5.390625 -41.921875 L 15.921875 -41.921875 L 15.921875 -15.46875 C 15.921875 -12.90625 16.472656 -11.035156 17.578125 -9.859375 C 18.679688 -8.679688 20.382812 -8.09375 22.6875 -8.09375 C 25.601562 -8.09375 27.867188 -9.046875 29.484375 -10.953125 C 31.109375 -12.867188 31.921875 -15.882812 31.921875 -20 L 31.921875 -41.921875 L 42.453125 -41.921875 L 42.453125 0 L 32.34375 0 L 32.34375 -6.15625 L 31.546875 -6.34375 C 30.203125 -3.9375 28.5625 -2.144531 26.625 -0.96875 C 24.6875 0.207031 22.207031 0.796875 19.1875 0.796875 Z M 19.1875 0.796875 "/></g></g></g><g fill="#000000" fill-opacity="1"><g transform="translate(560.329287, 314.986561)"><g><path d="M 17.40625 0.796875 C 13.632812 0.796875 10.753906 -0.222656 8.765625 -2.265625 C 6.773438 -4.304688 5.78125 -7.40625 5.78125 -11.5625 L 5.78125 -58.765625 L 16.3125 -58.765625 L 16.3125 -11.96875 C 16.3125 -9.414062 17.375 -8.140625 19.5 -8.140625 C 20.101562 -8.140625 20.75 -8.238281 21.4375 -8.4375 L 21.96875 -8.28125 L 22.921875 -0.1875 C 22.335938 0.113281 21.5625 0.351562 20.59375 0.53125 C 19.632812 0.707031 18.570312 0.796875 17.40625 0.796875 Z M 17.40625 0.796875 "/></g></g></g><g fill="#000000" fill-opacity="1"><g transform="translate(584.426263, 314.986561)"><g><path d="M 28.921875 -10 L 31.65625 -2.203125 C 30.519531 -1.265625 29.085938 -0.53125 27.359375 0 C 25.640625 0.53125 23.691406 0.796875 21.515625 0.796875 C 16.972656 0.796875 13.523438 -0.4375 11.171875 -2.90625 C 8.816406 -5.375 7.640625 -8.96875 7.640625 -13.6875 L 7.640625 -33.59375 L 1.25 -33.59375 L 1.25 -41.96875 L 7.640625 -41.96875 L 7.640625 -50.140625 L 18.171875 -51.84375 L 18.171875 -41.96875 L 30.0625 -41.96875 L 30.0625 -33.59375 L 18.171875 -33.59375 L 18.171875 -14.4375 C 18.171875 -12.363281 18.597656 -10.847656 19.453125 -9.890625 C 20.316406 -8.941406 21.570312 -8.46875 23.21875 -8.46875 C 25.09375 -8.46875 26.726562 -8.976562 28.125 -10 Z M 28.921875 -10 "/></g></g></g><g fill="#000000" fill-opacity="1"><g transform="translate(616.99901, 314.986561)"><g><path d="M 11.28125 -46.9375 C 9.382812 -46.9375 7.835938 -47.515625 6.640625 -48.671875 C 5.453125 -49.828125 4.859375 -51.316406 4.859375 -53.140625 C 4.859375 -54.941406 5.453125 -56.414062 6.640625 -57.5625 C 7.835938 -58.71875 9.382812 -59.296875 11.28125 -59.296875 C 12.550781 -59.296875 13.679688 -59.03125 14.671875 -58.5 C 15.660156 -57.96875 16.425781 -57.238281 16.96875 -56.3125 C 17.507812 -55.382812 17.78125 -54.328125 17.78125 -53.140625 C 17.78125 -51.941406 17.507812 -50.875 16.96875 -49.9375 C 16.425781 -49 15.660156 -48.265625 14.671875 -47.734375 C 13.679688 -47.203125 12.550781 -46.9375 11.28125 -46.9375 Z M 6.046875 0 L 6.046875 -41.921875 L 16.578125 -41.921875 L 16.578125 0 Z M 6.046875 0 "/></g></g></g><g fill="#000000" fill-opacity="1"><g transform="translate(639.575719, 314.986561)"><g><path d="M 30.296875 0.796875 C 25.203125 0.796875 20.707031 -0.238281 16.8125 -2.3125 C 12.925781 -4.394531 9.878906 -7.570312 7.671875 -11.84375 C 5.472656 -16.113281 4.375 -21.425781 4.375 -27.78125 C 4.375 -34.144531 5.472656 -39.460938 7.671875 -43.734375 C 9.878906 -48.003906 12.925781 -51.175781 16.8125 -53.25 C 20.707031 -55.332031 25.203125 -56.375 30.296875 -56.375 C 35.390625 -56.375 39.875 -55.335938 43.75 -53.265625 C 47.625 -51.203125 50.65625 -48.03125 52.84375 -43.75 C 55.039062 -39.46875 56.140625 -34.144531 56.140625 -27.78125 C 56.140625 -21.425781 55.039062 -16.101562 52.84375 -11.8125 C 50.65625 -7.53125 47.625 -4.359375 43.75 -2.296875 C 39.875 -0.234375 35.390625 0.796875 30.296875 0.796875 Z M 30.296875 -8.75 C 35.003906 -8.75 38.597656 -10.257812 41.078125 -13.28125 C 43.566406 -16.3125 44.8125 -21.144531 44.8125 -27.78125 C 44.8125 -34.425781 43.566406 -39.265625 41.078125 -42.296875 C 38.597656 -45.335938 35.003906 -46.859375 30.296875 -46.859375 C 25.554688 -46.859375 21.9375 -45.335938 19.4375 -42.296875 C 16.945312 -39.265625 15.703125 -34.425781 15.703125 -27.78125 C 15.703125 -21.144531 16.945312 -16.3125 19.4375 -13.28125 C 21.9375 -10.257812 25.554688 -8.75 30.296875 -8.75 Z M 30.296875 -8.75 "/></g></g></g><g fill="#000000" fill-opacity="1"><g transform="translate(700.122271, 314.986561)"><g><path d="M 19.1875 0.796875 C 14.476562 0.796875 11 -0.488281 8.75 -3.0625 C 6.507812 -5.632812 5.390625 -9.328125 5.390625 -14.140625 L 5.390625 -41.921875 L 15.921875 -41.921875 L 15.921875 -15.46875 C 15.921875 -12.90625 16.472656 -11.035156 17.578125 -9.859375 C 18.679688 -8.679688 20.382812 -8.09375 22.6875 -8.09375 C 25.601562 -8.09375 27.867188 -9.046875 29.484375 -10.953125 C 31.109375 -12.867188 31.921875 -15.882812 31.921875 -20 L 31.921875 -41.921875 L 42.453125 -41.921875 L 42.453125 0 L 32.34375 0 L 32.34375 -6.15625 L 31.546875 -6.34375 C 30.203125 -3.9375 28.5625 -2.144531 26.625 -0.96875 C 24.6875 0.207031 22.207031 0.796875 19.1875 0.796875 Z M 19.1875 0.796875 "/></g></g></g><g fill="#000000" fill-opacity="1"><g transform="translate(748.620334, 314.986561)"><g><path d="M 28.921875 -10 L 31.65625 -2.203125 C 30.519531 -1.265625 29.085938 -0.53125 27.359375 0 C 25.640625 0.53125 23.691406 0.796875 21.515625 0.796875 C 16.972656 0.796875 13.523438 -0.4375 11.171875 -2.90625 C 8.816406 -5.375 7.640625 -8.96875 7.640625 -13.6875 L 7.640625 -33.59375 L 1.25 -33.59375 L 1.25 -41.96875 L 7.640625 -41.96875 L 7.640625 -50.140625 L 18.171875 -51.84375 L 18.171875 -41.96875 L 30.0625 -41.96875 L 30.0625 -33.59375 L 18.171875 -33.59375 L 18.171875 -14.4375 C 18.171875 -12.363281 18.597656 -10.847656 19.453125 -9.890625 C 20.316406 -8.941406 21.570312 -8.46875 23.21875 -8.46875 C 25.09375 -8.46875 26.726562 -8.976562 28.125 -10 Z M 28.921875 -10 "/></g></g></g><g fill="#000000" fill-opacity="1"><g transform="translate(781.193081, 314.986561)"><g><path d="M 6.046875 16.984375 L 6.046875 -41.921875 L 16.578125 -41.921875 L 16.578125 -36.453125 L 17.375 -36.296875 C 18.613281 -38.421875 20.269531 -40.019531 22.34375 -41.09375 C 24.425781 -42.175781 26.859375 -42.71875 29.640625 -42.71875 C 33.015625 -42.71875 35.960938 -41.921875 38.484375 -40.328125 C 41.003906 -38.734375 42.96875 -36.304688 44.375 -33.046875 C 45.78125 -29.796875 46.484375 -25.757812 46.484375 -20.9375 C 46.484375 -16.15625 45.738281 -12.140625 44.25 -8.890625 C 42.769531 -5.648438 40.710938 -3.222656 38.078125 -1.609375 C 35.441406 -0.00390625 32.40625 0.796875 28.96875 0.796875 C 26.351562 0.796875 24.09375 0.359375 22.1875 -0.515625 C 20.289062 -1.390625 18.6875 -2.75 17.375 -4.59375 L 16.578125 -4.453125 L 16.578125 16.984375 Z M 26.03125 -8.140625 C 29.175781 -8.140625 31.554688 -9.164062 33.171875 -11.21875 C 34.796875 -13.269531 35.609375 -16.507812 35.609375 -20.9375 C 35.609375 -25.375 34.796875 -28.625 33.171875 -30.6875 C 31.554688 -32.757812 29.175781 -33.796875 26.03125 -33.796875 C 23.09375 -33.796875 20.757812 -32.726562 19.03125 -30.59375 C 17.3125 -28.46875 16.453125 -25.25 16.453125 -20.9375 C 16.453125 -16.65625 17.3125 -13.453125 19.03125 -11.328125 C 20.757812 -9.203125 23.09375 -8.140625 26.03125 -8.140625 Z M 26.03125 -8.140625 "/></g></g></g><g fill="#000000" fill-opacity="1"><g transform="translate(831.401487, 314.986561)"><g><path d="M 19.1875 0.796875 C 14.476562 0.796875 11 -0.488281 8.75 -3.0625 C 6.507812 -5.632812 5.390625 -9.328125 5.390625 -14.140625 L 5.390625 -41.921875 L 15.921875 -41.921875 L 15.921875 -15.46875 C 15.921875 -12.90625 16.472656 -11.035156 17.578125 -9.859375 C 18.679688 -8.679688 20.382812 -8.09375 22.6875 -8.09375 C 25.601562 -8.09375 27.867188 -9.046875 29.484375 -10.953125 C 31.109375 -12.867188 31.921875 -15.882812 31.921875 -20 L 31.921875 -41.921875 L 42.453125 -41.921875 L 42.453125 0 L 32.34375 0 L 32.34375 -6.15625 L 31.546875 -6.34375 C 30.203125 -3.9375 28.5625 -2.144531 26.625 -0.96875 C 24.6875 0.207031 22.207031 0.796875 19.1875 0.796875 Z M 19.1875 0.796875 "/></g></g></g><g fill="#000000" fill-opacity="1"><g transform="translate(879.899502, 314.986561)"><g><path d="M 28.921875 -10 L 31.65625 -2.203125 C 30.519531 -1.265625 29.085938 -0.53125 27.359375 0 C 25.640625 0.53125 23.691406 0.796875 21.515625 0.796875 C 16.972656 0.796875 13.523438 -0.4375 11.171875 -2.90625 C 8.816406 -5.375 7.640625 -8.96875 7.640625 -13.6875 L 7.640625 -33.59375 L 1.25 -33.59375 L 1.25 -41.96875 L 7.640625 -41.96875 L 7.640625 -50.140625 L 18.171875 -51.84375 L 18.171875 -41.96875 L 30.0625 -41.96875 L 30.0625 -33.59375 L 18.171875 -33.59375 L 18.171875 -14.4375 C 18.171875 -12.363281 18.597656 -10.847656 19.453125 -9.890625 C 20.316406 -8.941406 21.570312 -8.46875 23.21875 -8.46875 C 25.09375 -8.46875 26.726562 -8.976562 28.125 -10 Z M 28.921875 -10 "/></g></g></g></svg>